<svg preserveAspectRatio="none" width="100%" height="100%" overflow="visible" style="display: block;" viewBox="0 0 24 24" fill="none" xmlns="http://www.w3.org/2000/svg">
<g id="verified">
<mask id="mask0_0_9" style="mask-type:alpha" maskUnits="userSpaceOnUse" x="0" y="0" width="24" height="24">
<rect id="Bounding box" width="24" height="24" fill="var(--fill-0, #D9D9D9)"/>
</mask>
<g mask="url(#mask0_0_9)">
<path id="verified_2" d="M8.6002 22.5L6.7002 19.3L3.1002 18.5L3.4502 14.8L1.0002 12L3.4502 9.2L3.1002 5.5L6.7002 4.7L8.6002 1.5L12.0002 2.95L15.4002 1.5L17.3002 4.7L20.9002 5.5L20.5502 9.2L23.0002 12L20.5502 14.8L20.9002 18.5L17.3002 19.3L15.4002 22.5L12.0002 21.05L8.6002 22.5ZM10.9502 15.55L16.6002 9.9L15.2002 8.45L10.9502 12.7L8.8002 10.6L7.4002 12L10.9502 15.55Z" fill="var(--fill-0, #1C1B1F)"/>
</g>
</g>
</svg>
