<svg preserveAspectRatio="none" width="100%" height="100%" overflow="visible" style="display: block;" viewBox="0 0 22.6286 22.6286" fill="none" xmlns="http://www.w3.org/2000/svg">
<g id="auto_stories">
<mask id="mask0_0_7" style="mask-type:alpha" maskUnits="userSpaceOnUse" x="0" y="0" width="23" height="23">
<rect id="Bounding box" width="22.6286" height="22.6286" fill="var(--fill-0, #D9D9D9)"/>
</mask>
<g mask="url(#mask0_0_7)">
<path id="auto_stories_2" d="M11.3143 18.8572C10.56 18.2601 9.74288 17.7965 8.86288 17.4665C7.98288 17.1365 7.07145 16.9715 6.12859 16.9715C5.46859 16.9715 4.82038 17.0579 4.18395 17.2308C3.54752 17.4036 2.93859 17.6472 2.35716 17.9615C2.02716 18.1343 1.70895 18.1265 1.40252 17.9379C1.09609 17.7493 0.942877 17.4743 0.942877 17.1129V5.75148C0.942877 5.57863 0.986091 5.41363 1.07252 5.25648C1.15895 5.09934 1.28859 4.98148 1.46145 4.90291C2.18431 4.52577 2.93859 4.24291 3.72431 4.05434C4.51002 3.86577 5.31145 3.77148 6.12859 3.77148C7.04002 3.77148 7.93181 3.88934 8.80395 4.12506C9.67609 4.36077 10.5129 4.71434 11.3143 5.18577V16.5943C12.1157 16.0915 12.9564 15.7143 13.8364 15.4629C14.7164 15.2115 15.6043 15.0858 16.5 15.0858C17.0657 15.0858 17.6197 15.1329 18.1618 15.2272C18.704 15.3215 19.25 15.4629 19.8 15.6515V4.3372C20.0357 4.41577 20.2675 4.49827 20.4954 4.5847C20.7232 4.67113 20.9472 4.7772 21.1672 4.90291C21.34 4.98148 21.4697 5.09934 21.5561 5.25648C21.6425 5.41363 21.6857 5.57863 21.6857 5.75148V17.1129C21.6857 17.4743 21.5325 17.7493 21.2261 17.9379C20.9197 18.1265 20.6014 18.1343 20.2714 17.9615C19.69 17.6472 19.0811 17.4036 18.4447 17.2308C17.8082 17.0579 17.16 16.9715 16.5 16.9715C15.5572 16.9715 14.6457 17.1365 13.7657 17.4665C12.8857 17.7965 12.0686 18.2601 11.3143 18.8572ZM13.2 14.1429V5.18577L17.9143 0.471484V9.90006L13.2 14.1429Z" fill="var(--fill-0, #003123)"/>
</g>
</g>
</svg>
