<svg width="23" height="23" viewBox="0 0 23 23" fill="none" xmlns="http://www.w3.org/2000/svg">
<mask id="mask0_20_120" style="mask-type:alpha" maskUnits="userSpaceOnUse" x="0" y="0" width="23" height="23">
<rect width="22.6286" height="22.6286" fill="#D9D9D9"/>
</mask>
<g mask="url(#mask0_20_120)">
<path d="M11.3143 13.2C11.0472 13.2 10.8232 13.1097 10.6425 12.929C10.4618 12.7482 10.3714 12.5243 10.3714 12.2572C10.3714 11.99 10.4618 11.7661 10.6425 11.5854C10.8232 11.4047 11.0472 11.3143 11.3143 11.3143C11.5814 11.3143 11.8054 11.4047 11.9861 11.5854C12.1668 11.7661 12.2572 11.99 12.2572 12.2572C12.2572 12.5243 12.1668 12.7482 11.9861 12.929C11.8054 13.1097 11.5814 13.2 11.3143 13.2ZM6.87108 12.929C6.69037 12.7482 6.60001 12.5243 6.60001 12.2572C6.60001 11.99 6.69037 11.7661 6.87108 11.5854C7.0518 11.4047 7.27573 11.3143 7.54287 11.3143C7.81001 11.3143 8.03394 11.4047 8.21465 11.5854C8.39537 11.7661 8.48573 11.99 8.48573 12.2572C8.48573 12.5243 8.39537 12.7482 8.21465 12.929C8.03394 13.1097 7.81001 13.2 7.54287 13.2C7.27573 13.2 7.0518 13.1097 6.87108 12.929ZM15.0857 13.2C14.8186 13.2 14.5947 13.1097 14.4139 12.929C14.2332 12.7482 14.1429 12.5243 14.1429 12.2572C14.1429 11.99 14.2332 11.7661 14.4139 11.5854C14.5947 11.4047 14.8186 11.3143 15.0857 11.3143C15.3529 11.3143 15.5768 11.4047 15.7575 11.5854C15.9382 11.7661 16.0286 11.99 16.0286 12.2572C16.0286 12.5243 15.9382 12.7482 15.7575 12.929C15.5768 13.1097 15.3529 13.2 15.0857 13.2ZM11.3143 16.9715C11.0472 16.9715 10.8232 16.8811 10.6425 16.7004C10.4618 16.5197 10.3714 16.2957 10.3714 16.0286C10.3714 15.7615 10.4618 15.5375 10.6425 15.3568C10.8232 15.1761 11.0472 15.0857 11.3143 15.0857C11.5814 15.0857 11.8054 15.1761 11.9861 15.3568C12.1668 15.5375 12.2572 15.7615 12.2572 16.0286C12.2572 16.2957 12.1668 16.5197 11.9861 16.7004C11.8054 16.8811 11.5814 16.9715 11.3143 16.9715ZM6.87108 16.7004C6.69037 16.5197 6.60001 16.2957 6.60001 16.0286C6.60001 15.7615 6.69037 15.5375 6.87108 15.3568C7.0518 15.1761 7.27573 15.0857 7.54287 15.0857C7.81001 15.0857 8.03394 15.1761 8.21465 15.3568C8.39537 15.5375 8.48573 15.7615 8.48573 16.0286C8.48573 16.2957 8.39537 16.5197 8.21465 16.7004C8.03394 16.8811 7.81001 16.9715 7.54287 16.9715C7.27573 16.9715 7.0518 16.8811 6.87108 16.7004ZM15.0857 16.9715C14.8186 16.9715 14.5947 16.8811 14.4139 16.7004C14.2332 16.5197 14.1429 16.2957 14.1429 16.0286C14.1429 15.7615 14.2332 15.5375 14.4139 15.3568C14.5947 15.1761 14.8186 15.0857 15.0857 15.0857C15.3529 15.0857 15.5768 15.1761 15.7575 15.3568C15.9382 15.5375 16.0286 15.7615 16.0286 16.0286C16.0286 16.2957 15.9382 16.5197 15.7575 16.7004C15.5768 16.8811 15.3529 16.9715 15.0857 16.9715ZM4.7143 20.7429C4.19573 20.7429 3.7518 20.5582 3.38251 20.189C3.01323 19.8197 2.82858 19.3757 2.82858 18.8572V5.65717C2.82858 5.1386 3.01323 4.69467 3.38251 4.32539C3.7518 3.9561 4.19573 3.77146 4.7143 3.77146H5.65715V1.88574H7.54287V3.77146H15.0857V1.88574H16.9714V3.77146H17.9143C18.4329 3.77146 18.8768 3.9561 19.2461 4.32539C19.6154 4.69467 19.8 5.1386 19.8 5.65717V18.8572C19.8 19.3757 19.6154 19.8197 19.2461 20.189C18.8768 20.5582 18.4329 20.7429 17.9143 20.7429H4.7143ZM4.7143 18.8572H17.9143V9.4286H4.7143V18.8572Z" fill="white"/>
</g>
</svg>
