<svg preserveAspectRatio="none" width="100%" height="100%" overflow="visible" style="display: block;" viewBox="0 0 22.6286 22.6286" fill="none" xmlns="http://www.w3.org/2000/svg">
<g id="calendar_month">
<mask id="mask0_0_4" style="mask-type:alpha" maskUnits="userSpaceOnUse" x="0" y="0" width="23" height="23">
<rect id="Bounding box" width="22.6286" height="22.6286" fill="var(--fill-0, #D9D9D9)"/>
</mask>
<g mask="url(#mask0_0_4)">
<path id="calendar_month_2" d="M11.3143 13.2001C11.0471 13.2001 10.8232 13.1097 10.6425 12.929C10.4618 12.7483 10.3714 12.5244 10.3714 12.2572C10.3714 11.9901 10.4618 11.7661 10.6425 11.5854C10.8232 11.4047 11.0471 11.3144 11.3143 11.3144C11.5814 11.3144 11.8054 11.4047 11.9861 11.5854C12.1668 11.7661 12.2571 11.9901 12.2571 12.2572C12.2571 12.5244 12.1668 12.7483 11.9861 12.929C11.8054 13.1097 11.5814 13.2001 11.3143 13.2001ZM6.87108 12.929C6.69036 12.7483 6.60001 12.5244 6.60001 12.2572C6.60001 11.9901 6.69036 11.7661 6.87108 11.5854C7.05179 11.4047 7.27572 11.3144 7.54286 11.3144C7.81001 11.3144 8.03393 11.4047 8.21465 11.5854C8.39536 11.7661 8.48572 11.9901 8.48572 12.2572C8.48572 12.5244 8.39536 12.7483 8.21465 12.929C8.03393 13.1097 7.81001 13.2001 7.54286 13.2001C7.27572 13.2001 7.05179 13.1097 6.87108 12.929ZM15.0857 13.2001C14.8186 13.2001 14.5946 13.1097 14.4139 12.929C14.2332 12.7483 14.1429 12.5244 14.1429 12.2572C14.1429 11.9901 14.2332 11.7661 14.4139 11.5854C14.5946 11.4047 14.8186 11.3144 15.0857 11.3144C15.3529 11.3144 15.5768 11.4047 15.7575 11.5854C15.9382 11.7661 16.0286 11.9901 16.0286 12.2572C16.0286 12.5244 15.9382 12.7483 15.7575 12.929C15.5768 13.1097 15.3529 13.2001 15.0857 13.2001ZM11.3143 16.9715C11.0471 16.9715 10.8232 16.8811 10.6425 16.7004C10.4618 16.5197 10.3714 16.2958 10.3714 16.0286C10.3714 15.7615 10.4618 15.5376 10.6425 15.3569C10.8232 15.1761 11.0471 15.0858 11.3143 15.0858C11.5814 15.0858 11.8054 15.1761 11.9861 15.3569C12.1668 15.5376 12.2571 15.7615 12.2571 16.0286C12.2571 16.2958 12.1668 16.5197 11.9861 16.7004C11.8054 16.8811 11.5814 16.9715 11.3143 16.9715ZM6.87108 16.7004C6.69036 16.5197 6.60001 16.2958 6.60001 16.0286C6.60001 15.7615 6.69036 15.5376 6.87108 15.3569C7.05179 15.1761 7.27572 15.0858 7.54286 15.0858C7.81001 15.0858 8.03393 15.1761 8.21465 15.3569C8.39536 15.5376 8.48572 15.7615 8.48572 16.0286C8.48572 16.2958 8.39536 16.5197 8.21465 16.7004C8.03393 16.8811 7.81001 16.9715 7.54286 16.9715C7.27572 16.9715 7.05179 16.8811 6.87108 16.7004ZM15.0857 16.9715C14.8186 16.9715 14.5946 16.8811 14.4139 16.7004C14.2332 16.5197 14.1429 16.2958 14.1429 16.0286C14.1429 15.7615 14.2332 15.5376 14.4139 15.3569C14.5946 15.1761 14.8186 15.0858 15.0857 15.0858C15.3529 15.0858 15.5768 15.1761 15.7575 15.3569C15.9382 15.5376 16.0286 15.7615 16.0286 16.0286C16.0286 16.2958 15.9382 16.5197 15.7575 16.7004C15.5768 16.8811 15.3529 16.9715 15.0857 16.9715ZM4.71429 20.7429C4.19572 20.7429 3.75179 20.5583 3.38251 20.189C3.01322 19.8197 2.82858 19.3758 2.82858 18.8572V5.65722C2.82858 5.13865 3.01322 4.69472 3.38251 4.32543C3.75179 3.95615 4.19572 3.77151 4.71429 3.77151H5.65715V1.88579H7.54286V3.77151H15.0857V1.88579H16.9714V3.77151H17.9143C18.4329 3.77151 18.8768 3.95615 19.2461 4.32543C19.6154 4.69472 19.8 5.13865 19.8 5.65722V18.8572C19.8 19.3758 19.6154 19.8197 19.2461 20.189C18.8768 20.5583 18.4329 20.7429 17.9143 20.7429H4.71429ZM4.71429 18.8572H17.9143V9.42865H4.71429V18.8572Z" fill="var(--fill-0, #003123)"/>
</g>
</g>
</svg>
