<svg width="108" height="45" viewBox="0 0 108 45" fill="none" xmlns="http://www.w3.org/2000/svg">
<rect width="107.385" height="44.7379" rx="7" fill="#ECEBF6"/>
<path d="M20.8668 29.3522C17.311 29.3522 15.2295 27.0533 15.2295 23.3231V16.9471C15.2295 16.0579 15.9667 15.3206 16.8773 15.3206C17.7663 15.3206 18.5035 16.0579 18.5035 16.9471V23.3231C18.5035 25.4919 19.3491 26.5762 20.8885 26.5762C22.4496 26.5762 23.2952 25.5352 23.2952 23.3882V16.9471C23.2952 16.0579 24.0324 15.3206 24.9213 15.3206C25.832 15.3206 26.5475 16.0579 26.5475 16.9471V23.3882C26.5475 27.1618 24.4443 29.3522 20.8668 29.3522Z" fill="#1A4085"/>
<path d="M29.9436 29.3739C29.0763 29.3739 28.3608 28.6582 28.3608 27.7907V17.1857C28.3608 16.1664 29.2064 15.3206 30.2038 15.3206C30.8759 15.3206 31.4613 15.6892 31.7866 16.2097L36.4048 23.4749V16.9254C36.4048 16.0579 37.1203 15.3206 38.0093 15.3206C38.8766 15.3206 39.6137 16.0579 39.6137 16.9254V27.5738C39.6137 28.5714 38.7898 29.3739 37.8141 29.3739C37.1637 29.3739 36.5999 29.0269 36.2747 28.5281L31.548 21.0243V27.7907C31.548 28.6582 30.8325 29.3739 29.9436 29.3739Z" fill="#1A4085"/>
<path d="M43.1994 29.3739C42.3104 29.3739 41.5732 28.6365 41.5732 27.7473V16.9471C41.5732 16.0579 42.3104 15.3206 43.1994 15.3206C44.11 15.3206 44.8255 16.0579 44.8255 16.9471V27.7473C44.8255 28.6365 44.11 29.3739 43.1994 29.3739Z" fill="#1A4085"/>
<path d="M53.4817 29.3739C49.167 29.3739 46.2616 26.4027 46.2616 22.3255C46.2616 18.27 49.1887 15.3206 53.4817 15.3206C54.3924 15.3206 55.4982 15.5157 56.4955 15.9495C56.9725 16.1447 57.3411 16.6001 57.3411 17.164C57.3411 17.9013 56.734 18.5086 55.9968 18.5086C55.8451 18.5086 55.715 18.4869 55.5849 18.4218C54.8911 18.1616 54.1972 18.0531 53.6335 18.0531C51.2268 18.0531 49.5139 19.7231 49.5139 22.3472C49.5139 24.9714 51.2268 26.6413 53.6335 26.6413C54.1972 26.6413 54.8911 26.5328 55.5849 26.2726C55.715 26.2075 55.8451 26.2292 55.9968 26.2292C56.734 26.2292 57.3194 26.8148 57.3194 27.5304C57.3194 28.0726 56.9725 28.5497 56.4955 28.7449C55.4982 29.1787 54.3924 29.3739 53.4817 29.3739Z" fill="#1A4085"/>
<path d="M60.4994 15.6242H67.481C68.2182 15.6242 68.8686 16.2314 68.8686 16.9905C68.8686 17.7495 68.2182 18.3568 67.481 18.3568H62.0822V20.8074H67.004C67.7412 20.8074 68.3916 21.4147 68.3916 22.1737C68.3916 22.9328 67.7412 23.54 67.004 23.54H62.0822V26.3377H67.481C68.2182 26.3377 68.8686 26.9449 68.8686 27.7039C68.8686 28.463 68.2182 29.0702 67.481 29.0702H60.4994C59.437 29.0702 58.8299 28.463 58.8299 27.4003V17.2941C58.8299 16.2314 59.437 15.6242 60.4994 15.6242Z" fill="#1A4085"/>
<path d="M74.532 29.4172C73.1661 29.4172 71.8652 29.0269 70.8461 28.5714C70.2173 28.3112 69.8921 27.7039 69.9788 27.0967C70.0439 26.2292 70.9545 25.7087 71.6917 25.9907C72.559 26.3593 73.4913 26.6413 74.4453 26.6413C75.6812 26.6413 76.787 26.2726 76.787 25.4051C76.787 24.6677 76.2666 24.3858 75.4427 24.1256L73.3612 23.5183C70.9111 22.8026 69.8054 21.6098 69.8054 19.5062C69.8054 16.882 71.9519 15.3639 74.9223 15.3639C76.2883 15.3639 77.3941 15.6242 78.3481 15.9929C78.9335 16.2097 79.3238 16.7736 79.3021 17.4025C79.3021 18.27 78.5432 18.964 77.5458 18.6387C76.7653 18.3134 75.963 18.1399 75.0741 18.1399C73.9033 18.1399 73.0577 18.5519 73.0577 19.2676C73.0577 19.9616 73.6214 20.2219 74.3803 20.4821L76.375 21.0893C78.9335 21.8701 80.0609 23.1496 80.0609 25.2316C80.0609 28.1377 77.7193 29.4172 74.532 29.4172Z" fill="#1A4085"/>
<path d="M83.0485 29.3739C82.1595 29.3739 81.4223 28.6365 81.4223 27.7473V17.2941C81.4223 16.2314 82.0294 15.6242 83.0918 15.6242H87.038C90.1602 15.6242 92.1549 17.2941 92.1549 20.0484C92.1549 22.8894 90.1602 24.581 86.9295 24.581H84.6746V27.7473C84.6746 28.6365 83.9591 29.3739 83.0485 29.3739ZM84.6746 18.4218V21.7833H86.8862C88.2522 21.7833 88.9026 21.2412 88.9026 20.0917C88.9026 18.9423 88.2522 18.4218 86.8862 18.4218H84.6746Z" fill="#1A4085"/>
</svg>
