<svg width="102" height="45" viewBox="0 0 102 45" fill="none" xmlns="http://www.w3.org/2000/svg">
<rect width="101.257" height="44.7379" rx="7" fill="white"/>
<path d="M35.1709 20.9541V15.4786C35.1709 15.2263 35.2078 15.017 35.2817 14.8508C35.3556 14.6846 35.4541 14.5522 35.5772 14.4537C35.7003 14.3552 35.8357 14.2844 35.9834 14.2413C36.1373 14.1983 36.2912 14.1767 36.4451 14.1767C36.7283 14.1829 37.0268 14.189 37.3408 14.1952C37.6547 14.1952 37.9717 14.2013 38.2918 14.2136C38.6181 14.2198 38.9351 14.2321 39.2429 14.2506V14.6661H36.5467C36.2943 14.6661 36.0912 14.74 35.9373 14.8877C35.7834 15.0293 35.7064 15.2478 35.7064 15.5433V17.4823L38.8551 17.5285V17.9255L35.7064 17.9717V20.9541H35.1709ZM39.481 20.9541L41.8725 14.1767H42.565L44.9565 20.9541H44.3932L43.6453 18.8489H40.7829L40.0442 20.9541H39.481ZM40.9214 18.3687H43.4883L42.2141 14.6569L40.9214 18.3687ZM48.1802 21.0095C47.7677 21.0095 47.4107 20.9633 47.1091 20.871C46.8136 20.7787 46.5674 20.6125 46.3704 20.3724C46.1796 20.1262 46.038 19.7753 45.9457 19.3198C45.8533 18.8643 45.8072 18.2733 45.8072 17.5469C45.8072 16.8637 45.8533 16.3004 45.9457 15.8572C46.0442 15.4078 46.1919 15.057 46.3889 14.8046C46.5859 14.5522 46.8382 14.3768 47.146 14.2783C47.4538 14.1736 47.8201 14.1213 48.2448 14.1213C48.4049 14.1213 48.5926 14.1305 48.8081 14.149C49.0297 14.1675 49.2574 14.1921 49.4913 14.2229C49.7252 14.2537 49.9407 14.2937 50.1377 14.3429V14.74C50.0392 14.7153 49.8915 14.6938 49.6945 14.6753C49.4975 14.6569 49.2759 14.6415 49.0297 14.6292C48.7896 14.6107 48.5495 14.6015 48.3094 14.6015C47.9524 14.6015 47.6477 14.6445 47.3953 14.7307C47.1491 14.8107 46.949 14.9585 46.7952 15.1739C46.6413 15.3832 46.5274 15.6818 46.4535 16.0696C46.3796 16.4512 46.3427 16.9437 46.3427 17.5469C46.3427 18.181 46.3766 18.695 46.4443 19.0889C46.5181 19.4829 46.6289 19.7845 46.7767 19.9938C46.9306 20.197 47.1306 20.3385 47.3769 20.4186C47.6231 20.4924 47.9216 20.5294 48.2725 20.5294C48.7342 20.5294 49.1128 20.517 49.4082 20.4924C49.7099 20.4616 49.953 20.4339 50.1377 20.4093V20.8064C49.9469 20.8433 49.7376 20.8772 49.5098 20.9079C49.282 20.9387 49.0543 20.9633 48.8265 20.9818C48.5988 21.0003 48.3833 21.0095 48.1802 21.0095ZM53.675 21.0095C53.2995 21.0095 52.9579 20.9756 52.6501 20.9079C52.3485 20.8341 52.09 20.7171 51.8745 20.5571C51.6652 20.397 51.5052 20.1816 51.3944 19.9107C51.2836 19.6337 51.2282 19.289 51.2282 18.8766V14.1767H51.7637V18.8766C51.7637 19.3075 51.8376 19.6429 51.9853 19.883C52.1392 20.1169 52.3577 20.2831 52.6409 20.3816C52.9302 20.474 53.2749 20.5201 53.675 20.5201C54.0813 20.5201 54.426 20.474 54.7092 20.3816C54.9924 20.2831 55.2078 20.1169 55.3555 19.883C55.5094 19.6429 55.5864 19.3075 55.5864 18.8766V14.1767H56.1219V18.8766C56.1219 19.289 56.0665 19.6337 55.9557 19.9107C55.8511 20.1816 55.691 20.397 55.4756 20.5571C55.2663 20.7171 55.0077 20.8341 54.7 20.9079C54.3983 20.9756 54.0567 21.0095 53.675 21.0095ZM58.826 20.9541C58.592 20.9541 58.3766 20.9172 58.1796 20.8433C57.9826 20.7694 57.8257 20.6402 57.7087 20.4555C57.5918 20.2647 57.5333 20.0031 57.5333 19.6706V14.1767H58.0688V19.606C58.0688 19.8461 58.1088 20.0277 58.1889 20.1508C58.275 20.2739 58.3828 20.357 58.512 20.4001C58.6475 20.437 58.7829 20.4555 58.9183 20.4555H61.4298V20.9541H58.826ZM62.4386 20.9541V14.1767H65.0609C65.461 14.1767 65.7965 14.2475 66.0673 14.3891C66.3443 14.5307 66.569 14.7461 66.7414 15.0354C66.9199 15.3186 67.0492 15.6725 67.1292 16.0973C67.2092 16.5159 67.2492 17.0052 67.2492 17.5654C67.2492 18.261 67.1661 18.8612 66.9999 19.3659C66.8399 19.8707 66.5967 20.2616 66.2705 20.5386C65.9504 20.8156 65.5472 20.9541 65.0609 20.9541H62.4386ZM62.9741 20.474H65.0239C65.4179 20.474 65.738 20.3539 65.9842 20.1139C66.2305 19.8676 66.4121 19.526 66.529 19.0889C66.6521 18.6519 66.7137 18.144 66.7137 17.5654C66.7137 17.0422 66.6798 16.5959 66.6121 16.2266C66.5506 15.8572 66.4521 15.5587 66.3166 15.3309C66.1812 15.097 66.0058 14.9277 65.7903 14.8231C65.581 14.7123 65.3256 14.6569 65.0239 14.6569H62.9741V20.474ZM68.1102 20.9541L70.5017 14.1767H71.1942L73.5857 20.9541H73.0225L72.2746 18.8489H69.4122L68.6735 20.9541H68.1102ZM69.5507 18.3687H72.1176L70.8434 14.6569L69.5507 18.3687ZM74.6928 20.9541V14.1767H77.3151C77.7152 14.1767 78.0507 14.2475 78.3216 14.3891C78.5986 14.5307 78.8232 14.7461 78.9956 15.0354C79.1741 15.3186 79.3034 15.6725 79.3834 16.0973C79.4634 16.5159 79.5034 17.0052 79.5034 17.5654C79.5034 18.261 79.4203 18.8612 79.2541 19.3659C79.0941 19.8707 78.8509 20.2616 78.5247 20.5386C78.2046 20.8156 77.8014 20.9541 77.3151 20.9541H74.6928ZM75.2283 20.474H77.2782C77.6721 20.474 77.9922 20.3539 78.2385 20.1139C78.4847 19.8676 78.6663 19.526 78.7832 19.0889C78.9063 18.6519 78.9679 18.144 78.9679 17.5654C78.9679 17.0422 78.934 16.5959 78.8663 16.2266C78.8048 15.8572 78.7063 15.5587 78.5709 15.3309C78.4354 15.097 78.26 14.9277 78.0446 14.8231C77.8353 14.7123 77.5798 14.6569 77.2782 14.6569H75.2283V20.474ZM82.2182 20.991C82.0643 20.991 81.9074 20.9787 81.7473 20.9541C81.5934 20.9233 81.4457 20.8679 81.3041 20.7879C81.1687 20.7017 81.0579 20.5755 80.9717 20.4093C80.8855 20.237 80.8424 20.0092 80.8424 19.726V15.4786C80.8424 15.2263 80.8794 15.017 80.9532 14.8508C81.0271 14.6846 81.1256 14.5522 81.2487 14.4537C81.3718 14.3552 81.5073 14.2844 81.655 14.2413C81.8089 14.1983 81.9628 14.1767 82.1167 14.1767C82.4675 14.1829 82.7999 14.189 83.1139 14.1952C83.434 14.2013 83.7418 14.2106 84.0372 14.2229C84.3389 14.229 84.6313 14.2383 84.9144 14.2506V14.6661H82.2275C81.9689 14.6661 81.7627 14.7369 81.6088 14.8785C81.4549 15.0139 81.378 15.2355 81.378 15.5433V17.3438L84.5266 17.39V17.787L81.378 17.8332V19.6245C81.378 19.8769 81.4211 20.0646 81.5073 20.1877C81.5996 20.3108 81.7165 20.3939 81.8581 20.437C81.9997 20.474 82.1444 20.4924 82.2921 20.4924H84.9144V20.9079C84.6313 20.9202 84.3358 20.9326 84.028 20.9449C83.7264 20.951 83.4247 20.9572 83.1231 20.9633C82.8215 20.9756 82.5199 20.9849 82.2182 20.991ZM34.5694 31.9541V23.504H38.2137C38.4946 23.504 38.7831 23.5382 39.0792 23.6065C39.3753 23.6672 39.6448 23.7963 39.8877 23.9937C40.1383 24.1911 40.3395 24.491 40.4913 24.8934C40.6432 25.2882 40.7191 25.8158 40.7191 26.4763C40.7191 27.1369 40.6432 27.6721 40.4913 28.0821C40.3395 28.4845 40.1421 28.7882 39.8991 28.9931C39.6638 29.1981 39.4056 29.3386 39.1247 29.4145C38.8438 29.4828 38.5705 29.517 38.3048 29.517C38.1681 29.517 38.0163 29.5094 37.8492 29.4942C37.6822 29.479 37.5152 29.4601 37.3482 29.4373C37.1811 29.4145 37.0255 29.3917 36.8812 29.369C36.7446 29.3386 36.6307 29.3196 36.5396 29.312V31.9541H34.5694ZM36.5396 27.7518H37.9973C38.1719 27.7518 38.3124 27.7063 38.4186 27.6152C38.5325 27.5241 38.616 27.3874 38.6692 27.2052C38.7223 27.023 38.7489 26.7838 38.7489 26.4877C38.7489 26.2068 38.7185 25.979 38.6578 25.8044C38.6047 25.6222 38.5249 25.4894 38.4186 25.4058C38.3124 25.3147 38.1757 25.2692 38.0087 25.2692H36.5396V27.7518ZM40.5396 31.9541L43.1134 23.504H45.5732L48.147 31.9541H46.1085L45.6757 30.4167H42.9881L42.5667 31.9541H40.5396ZM43.4436 28.6515H45.2202L44.3319 25.1895L43.4436 28.6515ZM51.8616 32.011C51.3909 32.011 50.9506 31.9731 50.5406 31.8972C50.1382 31.8212 49.7814 31.6808 49.4701 31.4758C49.1588 31.2708 48.9159 30.9861 48.7412 30.6217C48.5742 30.2497 48.4907 29.7751 48.4907 29.1981V23.504H50.4609V29.1867C50.4609 29.4373 50.514 29.6423 50.6203 29.8017C50.7342 29.9536 50.8936 30.0674 51.0986 30.1434C51.3112 30.2117 51.5655 30.2459 51.8616 30.2459C52.1501 30.2459 52.3969 30.2117 52.6019 30.1434C52.8144 30.0674 52.9739 29.9536 53.0802 29.8017C53.1941 29.6423 53.251 29.4373 53.251 29.1867V23.504H55.2212V29.1981C55.2212 29.7751 55.1339 30.2497 54.9592 30.6217C54.7922 30.9861 54.5531 31.2708 54.2418 31.4758C53.9305 31.6808 53.5737 31.8212 53.1713 31.8972C52.7689 31.9731 52.3323 32.011 51.8616 32.011ZM58.5631 31.9541C58.0848 31.9541 57.69 31.882 57.3787 31.7377C57.0674 31.5935 56.8359 31.3657 56.684 31.0544C56.5322 30.7431 56.4563 30.3408 56.4563 29.8473V23.504H58.4264V29.517C58.4264 29.6764 58.4492 29.8055 58.4948 29.9042C58.5479 30.0029 58.6238 30.075 58.7225 30.1206C58.8288 30.1661 58.9503 30.1889 59.087 30.1889H61.6493V31.9541H58.5631ZM62.5619 31.9541V23.504H64.5321V31.9541H62.5619ZM68.484 32.0224C68.2486 32.0224 68.0095 32.0148 67.7665 31.9997C67.5312 31.9845 67.2958 31.9655 67.0604 31.9427C66.8327 31.9123 66.6087 31.8782 66.3885 31.8402C66.176 31.8023 65.9786 31.7605 65.7963 31.7149V30.1548C66.0393 30.1775 66.3088 30.1965 66.6049 30.2117C66.901 30.2269 67.2009 30.2383 67.5046 30.2459C67.8159 30.2535 68.1082 30.2572 68.3815 30.2572C68.6472 30.2572 68.8712 30.2383 69.0534 30.2003C69.2432 30.1548 69.3874 30.0826 69.4861 29.9839C69.5848 29.8776 69.6342 29.7334 69.6342 29.5512V29.3348C69.6342 29.1298 69.5659 28.9742 69.4292 28.8679C69.3001 28.7616 69.1331 28.7084 68.9281 28.7084H68.2676C67.4173 28.7084 66.7719 28.5224 66.3316 28.1504C65.8912 27.7784 65.6711 27.152 65.6711 26.2713V25.8728C65.6711 25.0452 65.914 24.434 66.3999 24.0392C66.8858 23.6369 67.5843 23.4357 68.4954 23.4357C68.8294 23.4357 69.1521 23.4546 69.4634 23.4926C69.7746 23.523 70.0707 23.5609 70.3517 23.6065C70.6326 23.652 70.8793 23.7014 71.0919 23.7545V25.3033C70.7427 25.2806 70.3517 25.2578 69.9189 25.235C69.4861 25.2122 69.0914 25.2009 68.7345 25.2009C68.4992 25.2009 68.2904 25.2236 68.1082 25.2692C67.926 25.3071 67.7855 25.3831 67.6868 25.4969C67.5881 25.6032 67.5387 25.7627 67.5387 25.9753V26.1347C67.5387 26.3776 67.6071 26.5561 67.7437 26.6699C67.888 26.7838 68.1044 26.8408 68.3929 26.8408H69.1787C69.7025 26.8408 70.1353 26.9395 70.4769 27.1369C70.8186 27.3267 71.0729 27.5924 71.2399 27.934C71.4146 28.2681 71.5019 28.6477 71.5019 29.0729V29.4942C71.5019 30.1927 71.3766 30.7242 71.1261 31.0886C70.8831 31.453 70.5339 31.6998 70.0783 31.8288C69.6304 31.9579 69.0989 32.0224 68.484 32.0224ZM74.3689 31.9541V25.2692H72.1482V23.504H78.5484V25.2692H76.3277V31.9541H74.3689ZM78.2744 31.9541L80.8482 23.504H83.308L85.8818 31.9541H83.8433L83.4105 30.4167H80.7229L80.3015 31.9541H78.2744ZM81.1784 28.6515H82.955L82.0667 25.1895L81.1784 28.6515Z" fill="#0D0A08"/>
<path d="M15.04 27.3948H21.1809V29.1807C21.1809 31.5867 19.2305 33.5371 16.8245 33.5371H15.04V27.3948Z" fill="#F61010"/>
<path d="M15.04 27.3948H21.1809V29.1807C21.1809 31.5867 19.2305 33.5371 16.8245 33.5371H15.04V27.3948Z" fill="url(#paint0_linear_954_160)"/>
<rect x="15.04" y="19.2971" width="6.14082" height="6.1423" fill="#0D0A08"/>
<path d="M15.04 15.557C15.04 13.1511 16.9904 11.2007 19.3964 11.2007H21.1809V17.343H15.04V15.557Z" fill="#0D0A08"/>
<path d="M23.1338 11.2007H24.9183C27.3242 11.2007 29.2746 13.1511 29.2746 15.557V17.343H23.1338V11.2007Z" fill="#0D0A08"/>
<path d="M23.1338 19.2971H29.2746V21.0831C29.2746 23.489 27.3242 25.4394 24.9183 25.4394H23.1338V19.2971Z" fill="#0D0A08"/>
<defs>
<linearGradient id="paint0_linear_954_160" x1="18.1104" y1="27.3948" x2="18.1104" y2="33.5371" gradientUnits="userSpaceOnUse">
<stop stop-color="#FE0000"/>
<stop offset="1" stop-color="#C50002"/>
</linearGradient>
</defs>
</svg>
