<svg width="105" height="45" viewBox="0 0 105 45" fill="none" xmlns="http://www.w3.org/2000/svg">
<rect width="105" height="45" rx="7" fill="#ECEBF6"/>
<g clip-path="url(#clip0_954_143)">
<path d="M19.4062 13.3643C24.6746 13.3643 28.9463 17.6362 28.9463 22.9062C28.9461 28.1761 24.6745 32.4482 19.4062 32.4482C14.1381 32.4482 9.86738 28.1761 9.86719 22.9062C9.86719 17.6363 14.1379 13.3643 19.4062 13.3643Z" stroke="#26619C" stroke-width="1.32358"/>
<path d="M17.9504 17.9293C17.851 17.334 18.3068 16.7852 18.9104 16.7852H19.8341C20.4376 16.7852 20.8935 17.334 20.794 17.9293C20.6911 18.5452 20.5753 19.2984 20.5152 19.8939C20.2566 22.4542 20.625 26.0717 20.8478 27.872C20.9202 28.4565 20.4664 28.9795 19.8775 28.9795H18.867C18.2781 28.9795 17.8243 28.4565 17.8966 27.872C18.1195 26.0717 18.4879 22.4542 18.2293 19.8939C18.1691 19.2984 18.0534 18.5452 17.9504 17.9293Z" fill="#26619C"/>
<path d="M14.502 19.3132H16.7877C17.3194 19.3132 17.7503 19.7442 17.7503 20.2758V23.1614C17.7503 24.2548 16.2169 24.5016 15.8737 23.4635L14.502 19.3132Z" fill="#26619C"/>
<path d="M24.248 19.3135H21.9623C21.4306 19.3135 20.9997 19.7444 20.9997 20.2761V23.1616C20.9997 24.255 22.5331 24.5019 22.8763 23.4637L24.248 19.3135Z" fill="#26619C"/>
</g>
<path d="M35.5491 17.5655L34.6989 17.555V14.2275C34.6989 14.0875 34.7409 13.9756 34.8248 13.8916C34.9088 13.8076 35.0208 13.7656 35.1607 13.7656C35.2377 13.7656 35.3147 13.7761 35.3917 13.7971C35.4686 13.8181 35.5211 13.8356 35.5491 13.8496V17.5655ZM35.1607 17.3975V16.6733H38.2783C38.2993 16.7082 38.3203 16.7572 38.3413 16.8202C38.3623 16.8762 38.3727 16.9392 38.3727 17.0092C38.3727 17.1211 38.3448 17.2156 38.2888 17.2926C38.2328 17.3626 38.1523 17.3975 38.0473 17.3975H35.1607ZM35.1607 14.4899V13.7656H38.6457C38.6667 13.7936 38.6877 13.8391 38.7086 13.9021C38.7296 13.9651 38.7401 14.0316 38.7401 14.1015C38.7401 14.2135 38.7121 14.308 38.6562 14.385C38.6002 14.4549 38.5197 14.4899 38.4147 14.4899H35.1607ZM34.6989 16.4108H35.5596V20.1372C35.5246 20.1442 35.4686 20.1547 35.3917 20.1687C35.3217 20.1897 35.2482 20.2002 35.1712 20.2002C35.0173 20.2002 34.8983 20.1687 34.8143 20.1057C34.7374 20.0427 34.6989 19.9483 34.6989 19.8223V16.4108ZM41.5987 19.6019C41.8926 19.6019 42.1341 19.5739 42.323 19.5179C42.5189 19.4549 42.6589 19.3954 42.7429 19.3395V17.8174L41.4413 17.9539C41.0774 17.9819 40.808 18.0623 40.633 18.1953C40.4581 18.3283 40.3706 18.5207 40.3706 18.7726C40.3706 19.0315 40.4721 19.2345 40.675 19.3814C40.8849 19.5284 41.1928 19.6019 41.5987 19.6019ZM41.5882 15.1617C42.197 15.1617 42.6799 15.2982 43.0368 15.5711C43.3937 15.844 43.5721 16.2744 43.5721 16.8622V19.3499C43.5721 19.5039 43.5406 19.6229 43.4776 19.7068C43.4217 19.7838 43.3342 19.8573 43.2152 19.9273C43.0473 20.0182 42.8233 20.1022 42.5434 20.1792C42.2635 20.2562 41.9486 20.2947 41.5987 20.2947C40.9409 20.2947 40.4301 20.1652 40.0662 19.9063C39.7093 19.6474 39.5308 19.273 39.5308 18.7831C39.5308 18.3283 39.6813 17.9819 39.9822 17.7439C40.2901 17.499 40.7135 17.3521 41.2523 17.3031L42.7429 17.1561V16.8622C42.7429 16.5123 42.6379 16.2569 42.428 16.0959C42.218 15.935 41.9346 15.8545 41.5777 15.8545C41.2908 15.8545 41.0144 15.8965 40.7485 15.9805C40.4896 16.0644 40.2586 16.1589 40.0557 16.2639C39.9997 16.2149 39.9472 16.1589 39.8982 16.0959C39.8562 16.026 39.8352 15.956 39.8352 15.886C39.8352 15.7041 39.9367 15.5641 40.1397 15.4661C40.3286 15.3682 40.5455 15.2947 40.7905 15.2457C41.0424 15.1897 41.3083 15.1617 41.5882 15.1617ZM47.5611 15.865C47.0853 15.865 46.6899 16.026 46.375 16.3479C46.0601 16.6698 45.9027 17.1316 45.9027 17.7334C45.9027 18.3283 46.0531 18.7866 46.354 19.1085C46.6619 19.4304 47.0643 19.5914 47.5611 19.5914C47.8551 19.5914 48.1 19.5529 48.2959 19.4759C48.4919 19.3919 48.6668 19.2975 48.8208 19.1925C48.8977 19.2345 48.9607 19.287 49.0097 19.3499C49.0587 19.4129 49.0832 19.4899 49.0832 19.5809C49.0832 19.7768 48.9362 19.9448 48.6423 20.0847C48.3554 20.2177 47.995 20.2842 47.5611 20.2842C47.0783 20.2842 46.6444 20.1932 46.2595 20.0112C45.8817 19.8223 45.5842 19.5389 45.3673 19.161C45.1504 18.7831 45.0419 18.3073 45.0419 17.7334C45.0419 17.1666 45.1539 16.6943 45.3778 16.3164C45.6017 15.9315 45.9027 15.6446 46.2805 15.4556C46.6654 15.2597 47.0853 15.1617 47.5402 15.1617C47.974 15.1617 48.3309 15.2352 48.6108 15.3822C48.8977 15.5291 49.0412 15.6971 49.0412 15.886C49.0412 15.97 49.0167 16.0435 48.9677 16.1064C48.9187 16.1694 48.8558 16.2184 48.7788 16.2534C48.6248 16.1484 48.4534 16.0574 48.2644 15.9805C48.0825 15.9035 47.8481 15.865 47.5611 15.865ZM50.5374 18.3737V17.4185H51.3771V18.3318C51.3771 18.7796 51.4961 19.1015 51.734 19.2975C51.972 19.4934 52.3009 19.5914 52.7207 19.5914C53.0007 19.5914 53.2386 19.5634 53.4345 19.5074C53.6305 19.4444 53.7844 19.3814 53.8964 19.3185V17.4185H54.7361V19.287C54.7361 19.4339 54.7151 19.5529 54.6731 19.6439C54.6382 19.7278 54.5472 19.8118 54.4002 19.8958C54.2463 19.9868 54.0258 20.0742 53.7389 20.1582C53.452 20.2422 53.1091 20.2842 52.7102 20.2842C52.2484 20.2842 51.853 20.2177 51.5241 20.0847C51.2022 19.9448 50.9573 19.7348 50.7893 19.4549C50.6214 19.168 50.5374 18.8076 50.5374 18.3737ZM54.7361 17.9644H53.8964V15.3192C53.9314 15.3052 53.9839 15.2912 54.0538 15.2772C54.1308 15.2562 54.2078 15.2457 54.2848 15.2457C54.4387 15.2457 54.5507 15.2772 54.6207 15.3402C54.6976 15.3961 54.7361 15.4941 54.7361 15.6341V17.9644ZM51.3771 17.9644H50.5374V15.3192C50.5724 15.3052 50.6249 15.2912 50.6949 15.2772C50.7718 15.2562 50.8523 15.2457 50.9363 15.2457C51.0832 15.2457 51.1917 15.2772 51.2617 15.3402C51.3387 15.3961 51.3771 15.4941 51.3771 15.6341V17.9644ZM56.6025 17.3765L57.4423 17.5025V20.1267C57.4073 20.1407 57.3548 20.1547 57.2848 20.1687C57.2148 20.1897 57.1378 20.2002 57.0539 20.2002C56.9069 20.2002 56.795 20.1722 56.718 20.1162C56.641 20.0532 56.6025 19.9553 56.6025 19.8223V17.3765ZM57.4423 17.9014L56.6025 17.7859V13.3458C56.6375 13.3318 56.69 13.3178 56.76 13.3038C56.8369 13.2828 56.9139 13.2723 56.9909 13.2723C57.1448 13.2723 57.2568 13.3038 57.3268 13.3668C57.4038 13.4227 57.4423 13.5172 57.4423 13.6502V17.9014ZM62.6182 19.3185V15.7915L63.4579 15.781V19.3499C63.4579 19.4829 63.4264 19.5914 63.3634 19.6753C63.3075 19.7523 63.2165 19.8293 63.0905 19.9063C62.9506 19.9973 62.7511 20.0812 62.4922 20.1582C62.2333 20.2422 61.9359 20.2842 61.6 20.2842C61.0961 20.2842 60.6518 20.1967 60.2669 20.0217C59.882 19.8468 59.5811 19.5739 59.3642 19.203C59.1472 18.8251 59.0388 18.3388 59.0388 17.7439C59.0388 17.1351 59.1437 16.6418 59.3537 16.2639C59.5706 15.886 59.861 15.6096 60.2249 15.4346C60.5888 15.2527 60.9877 15.1617 61.4215 15.1617C61.6944 15.1617 61.9534 15.2002 62.1983 15.2772C62.4432 15.3542 62.6357 15.4486 62.7756 15.5606V16.3374C62.6427 16.2044 62.4677 16.0924 62.2508 16.0015C62.0408 15.9035 61.7924 15.8545 61.5055 15.8545C61.2186 15.8545 60.9527 15.9175 60.7077 16.0435C60.4628 16.1624 60.2669 16.3619 60.1199 16.6418C59.973 16.9217 59.8995 17.2961 59.8995 17.7649C59.8995 18.4017 60.0534 18.8671 60.3614 19.161C60.6693 19.4479 61.0786 19.5914 61.5895 19.5914C61.8344 19.5914 62.0338 19.5669 62.1878 19.5179C62.3487 19.4619 62.4922 19.3954 62.6182 19.3185ZM63.4579 15.991L62.6182 16.0015V13.3458C62.6532 13.3318 62.7056 13.3178 62.7756 13.3038C62.8526 13.2828 62.9296 13.2723 63.0065 13.2723C63.1605 13.2723 63.2725 13.3038 63.3424 13.3668C63.4194 13.4227 63.4579 13.5172 63.4579 13.6502V15.991ZM66.994 19.6019C67.2879 19.6019 67.5294 19.5739 67.7183 19.5179C67.9142 19.4549 68.0542 19.3954 68.1382 19.3395V17.8174L66.8366 17.9539C66.4727 17.9819 66.2033 18.0623 66.0283 18.1953C65.8534 18.3283 65.7659 18.5207 65.7659 18.7726C65.7659 19.0315 65.8674 19.2345 66.0703 19.3814C66.2802 19.5284 66.5881 19.6019 66.994 19.6019ZM66.9835 15.1617C67.5923 15.1617 68.0752 15.2982 68.4321 15.5711C68.789 15.844 68.9674 16.2744 68.9674 16.8622V19.3499C68.9674 19.5039 68.9359 19.6229 68.873 19.7068C68.817 19.7838 68.7295 19.8573 68.6105 19.9273C68.4426 20.0182 68.2187 20.1022 67.9387 20.1792C67.6588 20.2562 67.3439 20.2947 66.994 20.2947C66.3362 20.2947 65.8254 20.1652 65.4615 19.9063C65.1046 19.6474 64.9262 19.273 64.9262 18.7831C64.9262 18.3283 65.0766 17.9819 65.3775 17.7439C65.6854 17.499 66.1088 17.3521 66.6476 17.3031L68.1382 17.1561V16.8622C68.1382 16.5123 68.0332 16.2569 67.8233 16.0959C67.6133 15.935 67.3299 15.8545 66.973 15.8545C66.6861 15.8545 66.4097 15.8965 66.1438 15.9805C65.8849 16.0644 65.6539 16.1589 65.451 16.2639C65.395 16.2149 65.3425 16.1589 65.2935 16.0959C65.2516 16.026 65.2306 15.956 65.2306 15.886C65.2306 15.7041 65.332 15.5641 65.535 15.4661C65.7239 15.3682 65.9408 15.2947 66.1858 15.2457C66.4377 15.1897 66.7036 15.1617 66.9835 15.1617ZM74.0166 19.3185V15.7915L74.8564 15.781V19.3499C74.8564 19.4829 74.8249 19.5914 74.7619 19.6753C74.7059 19.7523 74.615 19.8293 74.489 19.9063C74.349 19.9973 74.1496 20.0812 73.8907 20.1582C73.6318 20.2422 73.3343 20.2842 72.9984 20.2842C72.4946 20.2842 72.0502 20.1967 71.6654 20.0217C71.2805 19.8468 70.9796 19.5739 70.7626 19.203C70.5457 18.8251 70.4372 18.3388 70.4372 17.7439C70.4372 17.1351 70.5422 16.6418 70.7521 16.2639C70.9691 15.886 71.2595 15.6096 71.6234 15.4346C71.9873 15.2527 72.3861 15.1617 72.82 15.1617C73.0929 15.1617 73.3518 15.2002 73.5968 15.2772C73.8417 15.3542 74.0341 15.4486 74.1741 15.5606V16.3374C74.0411 16.2044 73.8662 16.0924 73.6493 16.0015C73.4393 15.9035 73.1909 15.8545 72.904 15.8545C72.6171 15.8545 72.3511 15.9175 72.1062 16.0435C71.8613 16.1624 71.6654 16.3619 71.5184 16.6418C71.3714 16.9217 71.298 17.2961 71.298 17.7649C71.298 18.4017 71.4519 18.8671 71.7598 19.161C72.0677 19.4479 72.4771 19.5914 72.988 19.5914C73.2329 19.5914 73.4323 19.5669 73.5863 19.5179C73.7472 19.4619 73.8907 19.3954 74.0166 19.3185ZM74.8564 15.991L74.0166 16.0015V13.3458C74.0516 13.3318 74.1041 13.3178 74.1741 13.3038C74.2511 13.2828 74.328 13.2723 74.405 13.2723C74.559 13.2723 74.6709 13.3038 74.7409 13.3668C74.8179 13.4227 74.8564 13.5172 74.8564 13.6502V15.991ZM76.9649 18.2583L76.9229 17.597L80.093 17.1666C80.065 16.7817 79.932 16.4668 79.6941 16.2219C79.4562 15.97 79.1273 15.844 78.7074 15.844C78.2735 15.844 77.9131 16.0015 77.6262 16.3164C77.3463 16.6243 77.2064 17.0686 77.2064 17.6495V17.8804C77.2553 18.4402 77.4373 18.8671 77.7522 19.161C78.0741 19.4479 78.5115 19.5914 79.0643 19.5914C79.3582 19.5914 79.6241 19.5424 79.862 19.4444C80.1 19.3464 80.2889 19.2415 80.4289 19.1295C80.5059 19.1785 80.5653 19.238 80.6073 19.308C80.6563 19.3709 80.6808 19.4444 80.6808 19.5284C80.6808 19.6614 80.6038 19.7873 80.4499 19.9063C80.3029 20.0182 80.1035 20.1092 79.8516 20.1792C79.6066 20.2492 79.3302 20.2842 79.0223 20.2842C78.4835 20.2842 78.0146 20.1862 77.6157 19.9903C77.2239 19.7943 76.9194 19.5039 76.7025 19.119C76.4926 18.7271 76.3876 18.2513 76.3876 17.6915C76.3876 17.2926 76.4436 16.9392 76.5556 16.6313C76.6745 16.3164 76.8355 16.0504 77.0384 15.8335C77.2483 15.6166 77.4968 15.4521 77.7837 15.3402C78.0706 15.2212 78.382 15.1617 78.7179 15.1617C79.1448 15.1617 79.5192 15.2527 79.8411 15.4346C80.17 15.6166 80.4254 15.872 80.6073 16.2009C80.7963 16.5228 80.8907 16.8937 80.8907 17.3136C80.8907 17.4675 80.8557 17.5795 80.7858 17.6495C80.7158 17.7124 80.6178 17.7509 80.4919 17.7649L76.9649 18.2583ZM87.9315 19.3185V15.7915L88.7712 15.781V19.3499C88.7712 19.4829 88.7397 19.5914 88.6767 19.6753C88.6208 19.7523 88.5298 19.8293 88.4038 19.9063C88.2639 19.9973 88.0644 20.0812 87.8055 20.1582C87.5466 20.2422 87.2492 20.2842 86.9133 20.2842C86.4094 20.2842 85.9651 20.1967 85.5802 20.0217C85.1953 19.8468 84.8944 19.5739 84.6775 19.203C84.4605 18.8251 84.3521 18.3388 84.3521 17.7439C84.3521 17.1351 84.457 16.6418 84.667 16.2639C84.8839 15.886 85.1743 15.6096 85.5382 15.4346C85.9021 15.2527 86.301 15.1617 86.7348 15.1617C87.0078 15.1617 87.2667 15.2002 87.5116 15.2772C87.7565 15.3542 87.949 15.4486 88.0889 15.5606V16.3374C87.956 16.2044 87.781 16.0924 87.5641 16.0015C87.3541 15.9035 87.1057 15.8545 86.8188 15.8545C86.5319 15.8545 86.266 15.9175 86.0211 16.0435C85.7761 16.1624 85.5802 16.3619 85.4332 16.6418C85.2863 16.9217 85.2128 17.2961 85.2128 17.7649C85.2128 18.4017 85.3668 18.8671 85.6747 19.161C85.9826 19.4479 86.3919 19.5914 86.9028 19.5914C87.1477 19.5914 87.3471 19.5669 87.5011 19.5179C87.6621 19.4619 87.8055 19.3954 87.9315 19.3185ZM88.7712 15.991L87.9315 16.0015V13.3458C87.9665 13.3318 88.0189 13.3178 88.0889 13.3038C88.1659 13.2828 88.2429 13.2723 88.3199 13.2723C88.4738 13.2723 88.5858 13.3038 88.6558 13.3668C88.7327 13.4227 88.7712 13.5172 88.7712 13.6502V15.991ZM90.8798 18.2583L90.8378 17.597L94.0078 17.1666C93.9798 16.7817 93.8469 16.4668 93.6089 16.2219C93.371 15.97 93.0421 15.844 92.6222 15.844C92.1884 15.844 91.828 16.0015 91.5411 16.3164C91.2611 16.6243 91.1212 17.0686 91.1212 17.6495V17.8804C91.1702 18.4402 91.3521 18.8671 91.667 19.161C91.9889 19.4479 92.4263 19.5914 92.9791 19.5914C93.273 19.5914 93.539 19.5424 93.7769 19.4444C94.0148 19.3464 94.2038 19.2415 94.3437 19.1295C94.4207 19.1785 94.4802 19.238 94.5222 19.308C94.5711 19.3709 94.5956 19.4444 94.5956 19.5284C94.5956 19.6614 94.5187 19.7873 94.3647 19.9063C94.2178 20.0182 94.0183 20.1092 93.7664 20.1792C93.5215 20.2492 93.245 20.2842 92.9371 20.2842C92.3983 20.2842 91.9294 20.1862 91.5306 19.9903C91.1387 19.7943 90.8343 19.5039 90.6173 19.119C90.4074 18.7271 90.3024 18.2513 90.3024 17.6915C90.3024 17.2926 90.3584 16.9392 90.4704 16.6313C90.5894 16.3164 90.7503 16.0504 90.9532 15.8335C91.1632 15.6166 91.4116 15.4521 91.6985 15.3402C91.9854 15.2212 92.2968 15.1617 92.6327 15.1617C93.0596 15.1617 93.434 15.2527 93.7559 15.4346C94.0848 15.6166 94.3402 15.872 94.5222 16.2009C94.7111 16.5228 94.8056 16.8937 94.8056 17.3136C94.8056 17.4675 94.7706 17.5795 94.7006 17.6495C94.6306 17.7124 94.5327 17.7509 94.4067 17.7649L90.8798 18.2583ZM37.4745 26.0185C37.8303 26.0185 38.1013 25.9381 38.2877 25.7771C38.4825 25.6077 38.5799 25.3536 38.5799 25.0148C38.5799 24.693 38.4783 24.4473 38.275 24.2779C38.0802 24.1001 37.7922 24.0111 37.411 24.0111C37.2755 24.0111 37.1612 24.0154 37.068 24.0238C36.9833 24.0238 36.8943 24.0323 36.8012 24.0492V26.0185H37.4745ZM36.8139 30.0969C36.7207 30.1223 36.5725 30.1477 36.3692 30.1731C36.1744 30.1985 35.9796 30.2112 35.7848 30.2112C35.59 30.2112 35.4163 30.1943 35.2639 30.1604C35.1199 30.135 34.997 30.0842 34.8954 30.0079C34.7938 29.9317 34.7175 29.8258 34.6667 29.6903C34.6159 29.5548 34.5905 29.3769 34.5905 29.1567V23.1726C34.5905 22.9947 34.6371 22.8592 34.7302 22.766C34.8319 22.6644 34.9674 22.5839 35.1368 22.5246C35.4248 22.423 35.7509 22.351 36.1151 22.3086C36.4878 22.2578 36.8605 22.2324 37.2332 22.2324C38.402 22.2324 39.2956 22.4823 39.9139 22.982C40.5323 23.4817 40.8414 24.1594 40.8414 25.0148C40.8414 25.4299 40.7736 25.8068 40.6381 26.1456C40.5111 26.4759 40.3163 26.7639 40.0537 27.0095C39.7996 27.2467 39.4735 27.433 39.0754 27.5686C38.6858 27.6956 38.2326 27.7591 37.7159 27.7591H36.8139V30.0969ZM47.2089 28.3055C47.2089 28.9492 46.9675 29.4532 46.4847 29.8174C46.0019 30.1816 45.2904 30.3637 44.3502 30.3637C43.9945 30.3637 43.6641 30.3383 43.3592 30.2875C43.0543 30.2366 42.7917 30.1604 42.5715 30.0588C42.3597 29.9487 42.1903 29.8131 42.0633 29.6522C41.9447 29.4913 41.8854 29.3007 41.8854 29.0805C41.8854 28.8772 41.9278 28.7078 42.0125 28.5723C42.0972 28.4283 42.1988 28.3097 42.3174 28.2165C42.563 28.352 42.8425 28.4749 43.1559 28.585C43.4778 28.6866 43.8462 28.7374 44.2613 28.7374C44.5238 28.7374 44.7229 28.6993 44.8584 28.6231C45.0024 28.5469 45.0744 28.4452 45.0744 28.3182C45.0744 28.1996 45.0236 28.1064 44.9219 28.0387C44.8203 27.9709 44.6509 27.9158 44.4137 27.8735L44.0326 27.7973C43.2957 27.6533 42.7451 27.4288 42.3809 27.1239C42.0252 26.8105 41.8473 26.3658 41.8473 25.7898C41.8473 25.4765 41.9151 25.1927 42.0506 24.9386C42.1861 24.6845 42.3767 24.4727 42.6223 24.3033C42.8679 24.1339 43.1602 24.0027 43.499 23.9095C43.8462 23.8163 44.2274 23.7697 44.6424 23.7697C44.9558 23.7697 45.248 23.7951 45.5191 23.846C45.7986 23.8883 46.04 23.9561 46.2433 24.0492C46.4466 24.1424 46.6075 24.2652 46.7261 24.4177C46.8447 24.5617 46.9039 24.7353 46.9039 24.9386C46.9039 25.1334 46.8658 25.3028 46.7896 25.4468C46.7218 25.5823 46.6329 25.6967 46.5228 25.7898C46.455 25.7475 46.3534 25.7051 46.2179 25.6628C46.0823 25.612 45.9341 25.5696 45.7732 25.5357C45.6123 25.4934 45.4471 25.4595 45.2777 25.4341C45.1168 25.4087 44.9685 25.396 44.833 25.396C44.5535 25.396 44.3375 25.4299 44.185 25.4976C44.0326 25.5569 43.9564 25.6543 43.9564 25.7898C43.9564 25.883 43.9987 25.9592 44.0834 26.0185C44.1681 26.0778 44.329 26.1329 44.5662 26.1837L44.9601 26.2726C45.7732 26.459 46.3492 26.7173 46.688 27.0477C47.0352 27.3695 47.2089 27.7888 47.2089 28.3055ZM48.4563 22.2578C48.4563 21.936 48.5622 21.6649 48.774 21.4447C48.9942 21.2245 49.2822 21.1144 49.6379 21.1144C49.9937 21.1144 50.2774 21.2245 50.4892 21.4447C50.7094 21.6649 50.8195 21.936 50.8195 22.2578C50.8195 22.5797 50.7094 22.8507 50.4892 23.0709C50.2774 23.2912 49.9937 23.4013 49.6379 23.4013C49.2822 23.4013 48.9942 23.2912 48.774 23.0709C48.5622 22.8507 48.4563 22.5797 48.4563 22.2578ZM50.7179 30.135C50.6247 30.1519 50.4849 30.1731 50.2986 30.1985C50.1207 30.2324 49.9386 30.2493 49.7523 30.2493C49.5659 30.2493 49.3965 30.2366 49.2441 30.2112C49.1001 30.1858 48.9773 30.135 48.8756 30.0588C48.774 29.9825 48.6935 29.8809 48.6342 29.7538C48.5834 29.6183 48.558 29.4447 48.558 29.2329V24.0619C48.6512 24.045 48.7867 24.0238 48.9646 23.9984C49.1509 23.9645 49.3372 23.9476 49.5236 23.9476C49.7099 23.9476 49.8751 23.9603 50.0191 23.9857C50.1715 24.0111 50.2986 24.0619 50.4002 24.1382C50.5019 24.2144 50.5781 24.3203 50.6289 24.4558C50.6882 24.5829 50.7179 24.7523 50.7179 24.964V30.135ZM55.8282 25.4849C55.6165 25.4849 55.4132 25.5188 55.2184 25.5866C55.032 25.6543 54.8669 25.756 54.7229 25.8915C54.5873 26.0185 54.4772 26.1795 54.3925 26.3743C54.3078 26.5691 54.2655 26.7978 54.2655 27.0604C54.2655 27.5855 54.4137 27.9794 54.7102 28.2419C55.0151 28.5045 55.3835 28.6358 55.8155 28.6358C56.0696 28.6358 56.2898 28.6061 56.4762 28.5469C56.6625 28.4876 56.8277 28.424 56.9717 28.3563C57.1411 28.4749 57.2681 28.6061 57.3528 28.7501C57.4375 28.8857 57.4799 29.0508 57.4799 29.2456C57.4799 29.5929 57.3147 29.864 56.9844 30.0588C56.654 30.2451 56.1967 30.3383 55.6122 30.3383C55.0786 30.3383 54.5958 30.2621 54.1638 30.1096C53.7319 29.9487 53.3592 29.7284 53.0458 29.4489C52.7409 29.1609 52.5037 28.8179 52.3343 28.4198C52.1649 28.0217 52.0802 27.5813 52.0802 27.0985C52.0802 26.5394 52.1691 26.0524 52.347 25.6374C52.5333 25.2139 52.7832 24.8666 53.0966 24.5956C53.41 24.3245 53.77 24.1212 54.1765 23.9857C54.5916 23.8502 55.0278 23.7824 55.4852 23.7824C56.095 23.7824 56.5651 23.8925 56.8954 24.1128C57.2258 24.333 57.3909 24.6167 57.3909 24.964C57.3909 25.1249 57.3528 25.2774 57.2766 25.4214C57.2004 25.5569 57.1114 25.6755 57.0098 25.7771C56.8658 25.7094 56.6922 25.6459 56.4889 25.5866C56.2856 25.5188 56.0654 25.4849 55.8282 25.4849ZM65.0218 27.0604C65.0218 27.5855 64.9413 28.0556 64.7804 28.4706C64.6194 28.8772 64.3907 29.2202 64.0943 29.4997C63.8063 29.7793 63.459 29.991 63.0525 30.135C62.6459 30.279 62.1928 30.351 61.693 30.351C61.1933 30.351 60.7401 30.2748 60.3336 30.1223C59.927 29.9698 59.5755 29.7538 59.279 29.4743C58.9911 29.1863 58.7666 28.8391 58.6057 28.4325C58.4447 28.0259 58.3643 27.5686 58.3643 27.0604C58.3643 26.5606 58.4447 26.1075 58.6057 25.7009C58.7666 25.2943 58.9911 24.9513 59.279 24.6718C59.5755 24.3838 59.927 24.1636 60.3336 24.0111C60.7401 23.8587 61.1933 23.7824 61.693 23.7824C62.1928 23.7824 62.6459 23.8629 63.0525 24.0238C63.459 24.1763 63.8063 24.3965 64.0943 24.6845C64.3907 24.964 64.6194 25.307 64.7804 25.7136C64.9413 26.1202 65.0218 26.5691 65.0218 27.0604ZM60.575 27.0604C60.575 27.577 60.6724 27.9751 60.8672 28.2546C61.0705 28.5257 61.35 28.6612 61.7057 28.6612C62.0615 28.6612 62.3325 28.5214 62.5188 28.2419C62.7137 27.9624 62.8111 27.5686 62.8111 27.0604C62.8111 26.5522 62.7137 26.1625 62.5188 25.8915C62.324 25.612 62.0488 25.4722 61.693 25.4722C61.3373 25.4722 61.062 25.612 60.8672 25.8915C60.6724 26.1625 60.575 26.5522 60.575 27.0604ZM68.5276 30.135C68.4344 30.1519 68.2947 30.1731 68.1083 30.1985C67.9304 30.2324 67.7483 30.2493 67.562 30.2493C67.3757 30.2493 67.2062 30.2366 67.0538 30.2112C66.9098 30.1858 66.787 30.135 66.6853 30.0588C66.5837 29.9825 66.5032 29.8809 66.4439 29.7538C66.3931 29.6183 66.3677 29.4447 66.3677 29.2329V21.864C66.4609 21.847 66.5964 21.8258 66.7743 21.8004C66.9606 21.7666 67.147 21.7496 67.3333 21.7496C67.5196 21.7496 67.6848 21.7623 67.8288 21.7877C67.9813 21.8131 68.1083 21.864 68.21 21.9402C68.3116 22.0164 68.3878 22.1223 68.4386 22.2578C68.4979 22.3849 68.5276 22.5543 68.5276 22.766V30.135ZM76.5353 27.0604C76.5353 27.5855 76.4548 28.0556 76.2939 28.4706C76.133 28.8772 75.9043 29.2202 75.6078 29.4997C75.3198 29.7793 74.9726 29.991 74.566 30.135C74.1594 30.279 73.7063 30.351 73.2065 30.351C72.7068 30.351 72.2537 30.2748 71.8471 30.1223C71.4405 29.9698 71.089 29.7538 70.7926 29.4743C70.5046 29.1863 70.2801 28.8391 70.1192 28.4325C69.9583 28.0259 69.8778 27.5686 69.8778 27.0604C69.8778 26.5606 69.9583 26.1075 70.1192 25.7009C70.2801 25.2943 70.5046 24.9513 70.7926 24.6718C71.089 24.3838 71.4405 24.1636 71.8471 24.0111C72.2537 23.8587 72.7068 23.7824 73.2065 23.7824C73.7063 23.7824 74.1594 23.8629 74.566 24.0238C74.9726 24.1763 75.3198 24.3965 75.6078 24.6845C75.9043 24.964 76.133 25.307 76.2939 25.7136C76.4548 26.1202 76.5353 26.5691 76.5353 27.0604ZM72.0885 27.0604C72.0885 27.577 72.1859 27.9751 72.3807 28.2546C72.584 28.5257 72.8635 28.6612 73.2193 28.6612C73.575 28.6612 73.846 28.5214 74.0324 28.2419C74.2272 27.9624 74.3246 27.5686 74.3246 27.0604C74.3246 26.5522 74.2272 26.1625 74.0324 25.8915C73.8376 25.612 73.5623 25.4722 73.2065 25.4722C72.8508 25.4722 72.5755 25.612 72.3807 25.8915C72.1859 26.1625 72.0885 26.5522 72.0885 27.0604ZM80.8542 23.7824C81.337 23.7824 81.7732 23.846 82.1629 23.973C82.561 24.0916 82.8955 24.2483 83.1666 24.4431C83.336 24.5617 83.4673 24.693 83.5604 24.837C83.6621 24.981 83.7129 25.1673 83.7129 25.396V29.8428C83.7129 30.2917 83.6282 30.6771 83.4588 30.9989C83.2894 31.3293 83.0565 31.6003 82.76 31.8121C82.472 32.0323 82.129 32.1932 81.7309 32.2949C81.3413 32.3965 80.922 32.4473 80.4731 32.4473C79.7023 32.4473 79.0967 32.3415 78.6563 32.1297C78.2158 31.9264 77.9956 31.5919 77.9956 31.126C77.9956 30.9312 78.0337 30.7576 78.1099 30.6051C78.1946 30.4611 78.2878 30.351 78.3894 30.2748C78.6351 30.4103 78.9104 30.5246 79.2153 30.6178C79.5287 30.711 79.8505 30.7576 80.1809 30.7576C80.6383 30.7576 81.0025 30.6813 81.2735 30.5289C81.5446 30.3764 81.6801 30.1308 81.6801 29.792V29.5887C81.3328 29.7411 80.9093 29.8174 80.4096 29.8174C80.0284 29.8174 79.6642 29.7623 79.3169 29.6522C78.9781 29.5336 78.6774 29.3558 78.4149 29.1186C78.1608 28.873 77.9532 28.5596 77.7923 28.1784C77.6398 27.7973 77.5636 27.3441 77.5636 26.819C77.5636 26.3023 77.6441 25.8534 77.805 25.4722C77.9744 25.0911 78.2031 24.7777 78.4911 24.532C78.7875 24.2779 79.1348 24.0916 79.5329 23.973C79.9395 23.846 80.3799 23.7824 80.8542 23.7824ZM81.642 25.6247C81.5827 25.5908 81.4937 25.5569 81.3752 25.523C81.265 25.4892 81.1253 25.4722 80.9559 25.4722C80.5409 25.4722 80.2275 25.5908 80.0157 25.828C79.8124 26.0567 79.7108 26.387 79.7108 26.819C79.7108 27.3102 79.8124 27.666 80.0157 27.8862C80.2275 28.0979 80.4943 28.2038 80.8161 28.2038C81.1634 28.2038 81.4387 28.1234 81.642 27.9624V25.6247ZM85.2551 22.2578C85.2551 21.936 85.361 21.6649 85.5727 21.4447C85.7929 21.2245 86.0809 21.1144 86.4367 21.1144C86.7924 21.1144 87.0762 21.2245 87.2879 21.4447C87.5081 21.6649 87.6182 21.936 87.6182 22.2578C87.6182 22.5797 87.5081 22.8507 87.2879 23.0709C87.0762 23.2912 86.7924 23.4013 86.4367 23.4013C86.0809 23.4013 85.7929 23.2912 85.5727 23.0709C85.361 22.8507 85.2551 22.5797 85.2551 22.2578ZM87.5166 30.135C87.4234 30.1519 87.2837 30.1731 87.0973 30.1985C86.9195 30.2324 86.7373 30.2493 86.551 30.2493C86.3647 30.2493 86.1953 30.2366 86.0428 30.2112C85.8988 30.1858 85.776 30.135 85.6744 30.0588C85.5727 29.9825 85.4922 29.8809 85.433 29.7538C85.3821 29.6183 85.3567 29.4447 85.3567 29.2329V24.0619C85.4499 24.045 85.5854 24.0238 85.7633 23.9984C85.9496 23.9645 86.136 23.9476 86.3223 23.9476C86.5087 23.9476 86.6738 23.9603 86.8178 23.9857C86.9703 24.0111 87.0973 24.0619 87.199 24.1382C87.3006 24.2144 87.3768 24.3203 87.4277 24.4558C87.487 24.5829 87.5166 24.7523 87.5166 24.964V30.135ZM91.7884 28.7756C91.9324 28.7756 92.0891 28.7628 92.2585 28.7374C92.4364 28.7036 92.5676 28.6612 92.6523 28.6104V27.594L91.7376 27.6702C91.5004 27.6871 91.3056 27.738 91.1531 27.8227C91.0007 27.9074 90.9245 28.0344 90.9245 28.2038C90.9245 28.3732 90.988 28.513 91.115 28.6231C91.2505 28.7247 91.475 28.7756 91.7884 28.7756ZM91.6868 23.7824C92.1441 23.7824 92.5592 23.829 92.9319 23.9222C93.313 24.0154 93.6349 24.1594 93.8975 24.3542C94.1685 24.5405 94.376 24.7819 94.52 25.0784C94.664 25.3663 94.736 25.7094 94.736 26.1075V28.9534C94.736 29.1736 94.6725 29.3558 94.5454 29.4997C94.4268 29.6353 94.2828 29.7538 94.1134 29.8555C93.5629 30.1858 92.7879 30.351 91.7884 30.351C91.3395 30.351 90.9329 30.3086 90.5687 30.2239C90.213 30.1392 89.9038 30.0122 89.6412 29.8428C89.3871 29.6734 89.1881 29.4574 89.0441 29.1948C88.9086 28.9322 88.8408 28.6273 88.8408 28.2801C88.8408 27.6956 89.0144 27.2467 89.3617 26.9333C89.709 26.6199 90.2468 26.4251 90.9753 26.3489L92.6396 26.171V26.0821C92.6396 25.8364 92.5295 25.6628 92.3093 25.5612C92.0976 25.451 91.7884 25.396 91.3818 25.396C91.06 25.396 90.7466 25.4299 90.4417 25.4976C90.1367 25.5654 89.8615 25.6501 89.6158 25.7517C89.5057 25.6755 89.4125 25.5612 89.3363 25.4087C89.2601 25.2478 89.222 25.0826 89.222 24.9132C89.222 24.693 89.2728 24.5193 89.3744 24.3923C89.4845 24.2568 89.6497 24.1424 89.8699 24.0492C90.1156 23.9561 90.4035 23.8883 90.7339 23.846C91.0727 23.8036 91.3903 23.7824 91.6868 23.7824Z" fill="#26619C"/>
<defs>
<clipPath id="clip0_954_143">
<rect width="20.8713" height="20.4075" fill="white" transform="translate(9.23633 12.4443)"/>
</clipPath>
</defs>
</svg>
