<svg width="106" height="45" viewBox="0 0 106 45" fill="none" xmlns="http://www.w3.org/2000/svg">
<rect width="105.866" height="44.7379" rx="7" fill="#ECEBF6"/>
<path d="M42.1017 29.9452C41.9686 29.9452 41.8635 29.9102 41.7864 29.8401C41.7093 29.7665 41.6708 29.6701 41.6708 29.551C41.6708 29.5334 41.6743 29.5001 41.6813 29.4511L42.2437 26.2653H45.045L44.9346 26.8961H42.8586L42.7062 27.7478H44.6245L44.5142 28.3786H42.5958L42.4329 29.3144H44.5089L44.3933 29.9452H42.1017Z" fill="#193265"/>
<path d="M45.3757 29.9452C45.2426 29.9452 45.1375 29.9102 45.0604 29.8401C44.9833 29.7665 44.9448 29.6701 44.9448 29.551C44.9448 29.5334 44.9483 29.5001 44.9553 29.4511L45.5176 26.2653H47.1837C47.5797 26.2653 47.8915 26.3599 48.1193 26.5492C48.3505 26.7384 48.4661 26.9925 48.4661 27.3114C48.4661 27.357 48.4591 27.4324 48.4451 27.5375L48.2717 28.5679C48.1946 29.02 48.0246 29.3634 47.7619 29.5983C47.4991 29.8296 47.1522 29.9452 46.7212 29.9452H45.3757ZM46.7317 29.3039C47.1837 29.3039 47.4553 29.048 47.5464 28.5363L47.7198 27.569C47.7268 27.5375 47.7303 27.4919 47.7303 27.4324C47.7303 27.2711 47.676 27.1432 47.5674 27.0486C47.4588 26.954 47.3134 26.9067 47.1312 26.9067H46.1273L45.7068 29.3039H46.7317Z" fill="#193265"/>
<path d="M49.886 29.9873C49.5216 29.9873 49.2343 29.8909 49.024 29.6981C48.8138 29.5019 48.7087 29.2443 48.7087 28.9254C48.7087 28.8483 48.7174 28.7606 48.735 28.6625L49.1554 26.2653H49.8807L49.4655 28.6415C49.455 28.7046 49.4497 28.7641 49.4497 28.8202C49.4497 28.9814 49.49 29.1094 49.5706 29.204C49.6547 29.2986 49.7704 29.3459 49.9175 29.3459H50.4746C50.6603 29.3459 50.8162 29.2846 50.9424 29.1619C51.0685 29.0358 51.1509 28.8623 51.1894 28.6415L51.6046 26.2653H52.3299L51.9095 28.6625C51.8359 29.0796 51.6712 29.4055 51.4154 29.6403C51.1596 29.8716 50.8355 29.9873 50.4431 29.9873H49.886Z" fill="#193265"/>
<path d="M53.6161 29.9873C53.2412 29.9873 52.9434 29.8874 52.7227 29.6876C52.5054 29.4879 52.3968 29.218 52.3968 28.878C52.3968 28.7974 52.4056 28.7011 52.4231 28.5889L52.5913 27.6216C52.6684 27.1835 52.8418 26.8418 53.1116 26.5965C53.3849 26.3477 53.7265 26.2232 54.1365 26.2232H54.6883C55.0562 26.2232 55.3471 26.3196 55.5608 26.5124C55.7745 26.7051 55.8814 26.9645 55.8814 27.2904C55.8814 27.3675 55.8726 27.4586 55.8551 27.5638H55.1403C55.1508 27.5042 55.1561 27.4464 55.1561 27.3903C55.1561 27.2291 55.1123 27.1012 55.0247 27.0065C54.9371 26.9119 54.8145 26.8646 54.6568 26.8646H54.1049C53.8982 26.8646 53.7248 26.9347 53.5846 27.0749C53.4445 27.2151 53.3534 27.4078 53.3113 27.6532L53.1536 28.5574C53.1396 28.6555 53.1326 28.7238 53.1326 28.7624C53.1326 28.9411 53.1782 29.0831 53.2693 29.1882C53.3604 29.2934 53.4865 29.3459 53.6477 29.3459H54.2101C54.4063 29.3459 54.5709 29.2776 54.7041 29.1409C54.8407 29.0007 54.9318 28.808 54.9774 28.5626H55.6922C55.6116 29.0112 55.4382 29.3617 55.1719 29.614C54.9056 29.8629 54.5745 29.9873 54.1785 29.9873H53.6161Z" fill="#193265"/>
<path d="M58.1096 29.0883H56.7273L56.2543 29.9452H55.4712L57.5577 26.2653H57.8836C58.1113 26.2653 58.248 26.3704 58.2935 26.5807L59.0083 29.9452H58.2777L58.1096 29.0883ZM57.0321 28.4785H58.0202L57.7679 27.1537H57.7627L57.0321 28.4785Z" fill="#193265"/>
<path d="M60.5388 29.9873C60.1639 29.9873 59.8661 29.8874 59.6453 29.6876C59.4281 29.4879 59.3195 29.218 59.3195 28.878C59.3195 28.7974 59.3282 28.7011 59.3457 28.5889L59.5139 27.6216C59.591 27.1835 59.7644 26.8418 60.0342 26.5965C60.3075 26.3477 60.6492 26.2232 61.0591 26.2232H61.611C61.9789 26.2232 62.2697 26.3196 62.4834 26.5124C62.6972 26.7051 62.804 26.9645 62.804 27.2904C62.804 27.3675 62.7953 27.4586 62.7778 27.5638H62.063C62.0735 27.5042 62.0787 27.4464 62.0787 27.3903C62.0787 27.2291 62.035 27.1012 61.9474 27.0065C61.8598 26.9119 61.7371 26.8646 61.5794 26.8646H61.0276C60.8209 26.8646 60.6474 26.9347 60.5073 27.0749C60.3671 27.2151 60.276 27.4078 60.234 27.6532L60.0763 28.5574C60.0623 28.6555 60.0553 28.7238 60.0553 28.7624C60.0553 28.9411 60.1008 29.0831 60.1919 29.1882C60.283 29.2934 60.4092 29.3459 60.5703 29.3459H61.1327C61.3289 29.3459 61.4936 29.2776 61.6268 29.1409C61.7634 29.0007 61.8545 28.808 61.9 28.5626H62.6148C62.5342 29.0112 62.3608 29.3617 62.0945 29.614C61.8282 29.8629 61.4971 29.9873 61.1012 29.9873H60.5388Z" fill="#193265"/>
<path d="M63.5003 26.2653H64.2256L63.5791 29.9452H62.8539L63.5003 26.2653Z" fill="#193265"/>
<path d="M65.6196 29.9873C65.3638 29.9873 65.1413 29.9417 64.9521 29.8506C64.7664 29.756 64.6227 29.6245 64.5211 29.4563C64.4195 29.2846 64.3687 29.0866 64.3687 28.8623C64.3687 28.7852 64.3775 28.6905 64.395 28.5784L64.5632 27.6321C64.6438 27.187 64.819 26.8418 65.0887 26.5965C65.3585 26.3477 65.7054 26.2232 66.1294 26.2232H66.6865C67.0789 26.2232 67.3873 26.3249 67.6115 26.5281C67.8393 26.7279 67.9532 26.9978 67.9532 27.3377C67.9532 27.4218 67.9444 27.52 67.9269 27.6321L67.7587 28.5784C67.6816 29.0235 67.5047 29.3705 67.2279 29.6193C66.9546 29.8646 66.6042 29.9873 66.1767 29.9873H65.6196ZM66.2187 29.3459C66.4325 29.3459 66.6112 29.2758 66.7548 29.1356C66.8985 28.9955 66.9931 28.7992 67.0386 28.5469L67.1963 27.6637C67.2068 27.5936 67.2121 27.5287 67.2121 27.4692C67.2121 27.2834 67.163 27.1362 67.0649 27.0276C66.9668 26.9189 66.8302 26.8646 66.655 26.8646H66.0979C65.8876 26.8646 65.7107 26.9347 65.567 27.0749C65.4234 27.2151 65.3288 27.4113 65.2832 27.6637L65.1255 28.5469C65.115 28.6134 65.1098 28.6783 65.1098 28.7414C65.1098 28.9271 65.1588 29.0743 65.2569 29.183C65.355 29.2916 65.4899 29.3459 65.6616 29.3459H66.2187Z" fill="#193265"/>
<path d="M68.6818 26.2653H69.2967L70.6527 28.7676L71.0942 26.2653H71.8037L71.1573 29.9452H70.5423L69.1863 27.4429L68.7448 29.9452H68.0353L68.6818 26.2653Z" fill="#193265"/>
<path d="M74.1151 29.0883H72.7328L72.2598 29.9452H71.4767L73.5632 26.2653H73.8891C74.1168 26.2653 74.2535 26.3704 74.299 26.5807L75.0138 29.9452H74.2833L74.1151 29.0883ZM73.0376 28.4785H74.0257L73.7734 27.1537H73.7682L73.0376 28.4785Z" fill="#193265"/>
<path d="M75.8117 29.9452C75.675 29.9452 75.5681 29.9119 75.4911 29.8453C75.414 29.7753 75.3754 29.6806 75.3754 29.5615C75.3754 29.5404 75.3789 29.5054 75.3859 29.4563L75.9483 26.2653H76.6736L76.1375 29.3144H78.1347L78.0244 29.9452H75.8117Z" fill="#193265"/>
<path d="M80.3631 29.9452C80.2299 29.9452 80.1248 29.9102 80.0477 29.8401C79.9706 29.7665 79.9321 29.6701 79.9321 29.551C79.9321 29.5334 79.9356 29.5001 79.9426 29.4511L80.505 26.2653H83.3063L83.1959 26.8961H81.1199L80.9675 27.7478H82.8858L82.7755 28.3786H80.8571L80.6942 29.3144H82.7702L82.6546 29.9452H80.3631Z" fill="#193265"/>
<path d="M85.4608 29.0883H84.0785L83.6055 29.9452H82.8224L84.9089 26.2653H85.2348C85.4625 26.2653 85.5992 26.3704 85.6447 26.5807L86.3595 29.9452H85.629L85.4608 29.0883ZM84.3834 28.4785H85.3714L85.1192 27.1537H85.1139L84.3834 28.4785Z" fill="#193265"/>
<path d="M87.1574 29.9452C87.0242 29.9452 86.9191 29.9102 86.842 29.8401C86.765 29.7665 86.7264 29.6701 86.7264 29.551C86.7264 29.5334 86.7299 29.5001 86.7369 29.4511L87.2993 26.2653H88.9654C89.3613 26.2653 89.6732 26.3599 89.9009 26.5492C90.1322 26.7384 90.2478 26.9925 90.2478 27.3114C90.2478 27.357 90.2408 27.4324 90.2268 27.5375L90.0533 28.5679C89.9762 29.02 89.8063 29.3634 89.5435 29.5983C89.2807 29.8296 88.9339 29.9452 88.5029 29.9452H87.1574ZM88.5134 29.3039C88.9654 29.3039 89.2369 29.048 89.328 28.5363L89.5015 27.569C89.5085 27.5375 89.512 27.4919 89.512 27.4324C89.512 27.2711 89.4577 27.1432 89.349 27.0486C89.2404 26.954 89.095 26.9067 88.9128 26.9067H87.909L87.4885 29.3039H88.5134Z" fill="#193265"/>
<path d="M30.2569 16.6996C31.8834 16.1577 33.579 15.8691 35.275 15.6955C35.8087 15.9881 36.3705 16.2629 36.7994 16.7149C35.2618 16.7604 33.7282 16.9248 32.2106 17.1833C30.285 17.5301 28.3885 18.0495 26.534 18.6874C25.9022 18.9034 25.2842 19.1588 24.66 19.3968C24.706 19.3615 24.7531 19.3278 24.8021 19.2967C26.5289 18.2425 28.3435 17.3268 30.2569 16.6996Z" fill="#193265"/>
<path d="M26.0729 10.5198H26.3576C26.5258 10.5453 26.6904 10.5994 26.8376 10.6888C28.7391 11.8216 30.6438 12.9503 32.5428 14.0872C29.1138 14.6771 25.7774 15.9381 22.8591 17.9085C22.0142 18.478 21.2045 19.1042 20.4403 19.7855C19.7481 20.4019 19.0529 21.0153 18.3818 21.6563C18.0761 21.952 17.777 22.2554 17.5031 22.5828C16.7348 23.4643 15.991 24.3688 15.2299 25.2575V17.4709C15.303 17.0842 15.5069 16.72 15.8141 16.4851C16.1847 16.2001 16.5819 15.9585 16.9745 15.7093C18.4451 14.791 19.9562 13.9468 21.4427 13.0566C22.7579 12.2782 24.068 11.4912 25.4017 10.7471C25.6077 10.6255 25.8372 10.5494 26.0729 10.5198Z" fill="#193265"/>
<path d="M61.268 13.1826C62.0026 12.6986 62.8856 12.5238 63.745 12.5144C64.4357 12.514 65.1268 12.5077 65.8184 12.518C66.7006 12.5354 67.5948 12.8483 68.2444 13.4812C68.9623 14.1655 69.3005 15.193 69.2907 16.1897C68.5436 16.1906 67.7961 16.1897 67.0486 16.1902C67.0383 15.7861 66.9444 15.3642 66.6791 15.0554C66.4442 14.7689 66.0824 14.6106 65.7227 14.6102C65.049 14.6089 64.3748 14.608 63.7011 14.6106C63.2368 14.6218 62.7246 14.7729 62.4423 15.1823C62.2388 15.4759 62.2884 15.8523 62.2853 16.192C62.2826 16.4829 62.4141 16.7735 62.6477 16.9393C63.0096 17.2101 63.469 17.2419 63.8931 17.3259C64.7354 17.4788 65.5778 17.6312 66.4205 17.7849C67.1278 17.9172 67.84 18.1259 68.4448 18.5425C68.8644 18.829 69.22 19.2393 69.3811 19.7395C69.5305 20.1685 69.5036 20.6316 69.5054 21.0803C69.5032 21.5349 69.5269 22.0006 69.4021 22.4426C69.2352 23.0795 68.8201 23.628 68.2985 23.9963C67.691 24.4258 66.965 24.6426 66.2385 24.7123C65.4892 24.7664 64.7367 24.7261 63.9861 24.7386C63.3178 24.7561 62.636 24.6904 62.0106 24.4307C61.3374 24.1581 60.7549 23.6449 60.3966 22.9919C60.0231 22.3166 59.8907 21.525 59.8943 20.7545C60.6418 20.754 61.3888 20.754 62.1363 20.7545C62.1399 21.26 62.2509 21.7986 62.5989 22.1745C62.8901 22.5052 63.3294 22.646 63.7517 22.6496C64.3619 22.6527 64.9729 22.65 65.5836 22.6509C66.0099 22.6487 66.4563 22.5705 66.8097 22.3063C67.028 22.1508 67.19 21.9018 67.2146 21.6247C67.2351 21.3775 67.2267 21.1286 67.2231 20.8805C67.2195 20.6436 67.1202 20.4103 66.9466 20.2557C66.6916 20.0268 66.3548 19.9343 66.0305 19.8753C65.2986 19.7479 64.5672 19.6192 63.8353 19.4918C63.125 19.3631 62.3962 19.2777 61.7275 18.9796C61.1307 18.7249 60.5729 18.3016 60.2709 17.6973C60.0571 17.2821 59.994 16.8039 60.0065 16.339C60.0164 15.8232 59.9672 15.2967 60.1014 14.7939C60.2678 14.1244 60.7071 13.5464 61.268 13.1826Z" fill="#193265"/>
<path d="M41.4979 12.6498C44.3734 12.6494 47.2489 12.6485 50.1249 12.6503C50.1244 13.3364 50.1253 14.0233 50.1245 14.7094C48.0081 14.7099 45.8921 14.7094 43.7767 14.7099C43.7767 15.7754 43.7767 16.8414 43.7771 17.9069C45.6895 17.9078 47.6023 17.9069 49.5147 17.9074C49.5147 18.5921 49.5152 19.2768 49.5147 19.9611C47.6019 19.962 45.6895 19.9611 43.7767 19.9616V24.5992H41.4974C41.4974 20.6159 41.497 16.6327 41.4979 12.6498Z" fill="#193265"/>
<path d="M48.876 24.605C50.38 20.6199 51.8821 16.6344 53.3857 12.6494C53.7315 12.6498 54.0773 12.6485 54.423 12.6494C54.7357 12.6538 55.0587 12.724 55.3177 12.9153C55.5718 13.0972 55.7476 13.3752 55.8577 13.6716C57.2239 17.316 58.5905 20.9601 59.9562 24.605C59.1631 24.6059 58.37 24.605 57.5773 24.6054C57.2435 23.6784 56.9071 22.7523 56.5761 21.8245C55.1419 21.824 53.7078 21.8227 52.2736 21.8249C51.9367 22.7528 51.5963 23.6793 51.255 24.6054C50.4623 24.605 49.6691 24.6059 48.876 24.605ZM52.8878 19.8319C53.9126 19.831 54.937 19.8306 55.9619 19.8324C55.451 18.3994 54.9438 16.9652 54.4324 15.5331C53.9189 16.9665 53.4036 18.3994 52.8878 19.8319Z" fill="#193265"/>
<path d="M70.5847 12.6503C71.3434 12.6485 72.1021 12.6494 72.8612 12.6498C72.8635 14.8247 72.8617 17.0001 72.8621 19.1754C72.8666 19.663 72.8523 20.1506 72.872 20.6378C72.906 21.2636 73.1507 21.9014 73.6338 22.2965C73.925 22.5387 74.3017 22.6518 74.6716 22.6514C75.2366 22.6518 75.8012 22.6509 76.3666 22.6514C76.7052 22.654 77.051 22.5758 77.3382 22.3836C77.7498 22.1088 78.0298 21.6529 78.1501 21.1657C78.2544 20.771 78.2423 20.358 78.2419 19.9531C78.2423 17.519 78.2419 15.0844 78.2423 12.6498C79.0019 12.6498 79.7615 12.6494 80.5215 12.6498C80.522 14.89 80.5215 17.1297 80.522 19.3689C80.5175 19.8588 80.5327 20.3491 80.5059 20.8381C80.4576 21.732 80.1623 22.6236 79.6054 23.3155C78.8583 24.2582 77.6688 24.7377 76.5093 24.7382C75.8647 24.74 75.2205 24.74 74.5759 24.7382C73.7376 24.7346 72.8881 24.4995 72.2005 23.9918C71.4807 23.4711 70.9717 22.6666 70.7462 21.791C70.6191 21.3056 70.5749 20.8005 70.5847 20.2986C70.5847 17.7492 70.5838 15.1997 70.5847 12.6503Z" fill="#193265"/>
<path d="M82.0899 12.6499C82.8491 12.649 83.6091 12.649 84.3687 12.6499C84.3691 15.9498 84.3682 19.2487 84.3687 22.5486C85.9863 22.5491 87.6039 22.5486 89.2214 22.5486C89.6929 22.5589 90.1658 22.5276 90.6359 22.5656V24.5876C90.2137 24.6252 89.7887 24.5966 89.3655 24.605H84.7981C84.3727 24.6006 83.9464 24.6153 83.5219 24.5952C83.0669 24.5755 82.6133 24.3512 82.3521 23.9579C82.1606 23.6763 82.0881 23.3263 82.089 22.9866C82.0899 19.541 82.089 16.095 82.0899 12.6499Z" fill="#193265"/>
<path d="M32.1866 19.2936C33.8152 18.9187 35.4755 18.7001 37.1394 18.5913C37.1399 22.1133 37.1409 25.6364 37.1389 29.1584C37.1113 29.5593 36.9763 29.9965 36.6456 30.237C36.0793 30.6455 35.4821 31.0058 34.8863 31.3651L34.8345 31.3964C34.0197 31.8806 33.1952 32.3463 32.3661 32.8024C31.6611 33.2268 30.9583 33.6564 30.2549 34.0833C30.1972 34.1359 30.1256 34.1089 30.0632 34.0844C29.4007 33.8203 28.7352 33.5639 28.0722 33.3009C28.0712 32.9745 28.0702 32.6477 28.0753 32.3208C28.5997 31.854 28.9714 31.2135 29.1487 30.5225C29.3578 29.7299 29.2505 28.901 29.2811 28.0904C30.1926 27.6098 31.1035 27.1287 32.0159 26.6497C30.166 25.6782 28.316 24.7073 26.4676 23.7318C26.3194 23.6527 26.1798 23.8176 26.0434 23.8672C24.2839 24.7931 22.5255 25.7206 20.7635 26.6405C20.7767 27.4398 20.7716 28.2385 20.7696 29.0378C20.6106 29.1589 20.514 29.3448 20.4772 29.5435C20.4506 29.6967 20.3877 29.8509 20.4036 30.0082C20.4956 30.0818 20.6086 30.1185 20.7134 30.1676C20.9756 30.3131 21.2618 30.139 21.5169 30.0578L21.5389 30.021C21.5246 29.8009 21.4474 29.5904 21.3907 29.379C21.3564 29.2396 21.27 29.1241 21.1637 29.0353C21.1586 28.3162 21.1617 27.5976 21.1627 26.878C21.9443 27.2697 22.7136 27.6864 23.4885 28.0925C23.4911 28.5756 23.4931 29.0593 23.4921 29.5429C23.4839 30.5991 23.9378 31.6446 24.6949 32.3489C24.6939 32.6656 24.7 32.9822 24.6974 33.2989C23.9614 33.5961 23.2242 33.8903 22.4887 34.1885C22.4278 34.2131 22.3568 34.2396 22.2995 34.1906C21.4377 33.6799 20.5738 33.1707 19.7084 32.6661C18.4034 31.8872 17.0825 31.1339 15.8163 30.2876C15.4651 30.0761 15.2402 29.6737 15.2295 29.2529V29.1252C15.2361 28.8427 15.2377 28.5603 15.2377 28.2779C16.2984 27.331 17.3994 26.4341 18.526 25.5735C19.9006 24.5378 21.315 23.5434 22.8449 22.7696C24.1372 22.1506 25.4519 21.5822 26.7805 21.0531C28.5491 20.3646 30.3423 19.7287 32.1866 19.2936Z" fill="#193265"/>
<path d="M32.1866 19.2936C33.8152 18.9187 35.4755 18.7001 37.1394 18.5913C37.1399 22.1133 37.1409 25.6364 37.1389 29.1584C37.1113 29.5593 36.9763 29.9965 36.6456 30.237C36.0793 30.6455 35.4821 31.0058 34.8863 31.3651L34.8345 31.3964C34.0197 31.8806 33.1952 32.3463 32.3661 32.8024C31.6611 33.2268 30.9583 33.6564 30.2549 34.0833C30.1972 34.1359 30.1256 34.1089 30.0632 34.0844C29.4007 33.8203 28.7352 33.5639 28.0722 33.3009C28.0712 32.9745 28.0702 32.6477 28.0753 32.3208C28.5997 31.854 28.9714 31.2135 29.1487 30.5225C29.3578 29.7299 29.2505 28.901 29.2811 28.0904C30.1926 27.6098 31.1035 27.1287 32.0159 26.6497C30.166 25.6782 28.316 24.7073 26.4676 23.7318C26.3194 23.6527 26.1798 23.8176 26.0434 23.8672C24.2839 24.7931 22.5255 25.7206 20.7635 26.6405C20.7767 27.4398 20.7716 28.2385 20.7696 29.0378C20.6106 29.1589 20.514 29.3448 20.4772 29.5435C20.4506 29.6967 20.3877 29.8509 20.4036 30.0082C20.4956 30.0818 20.6086 30.1185 20.7134 30.1676C20.9756 30.3131 21.2618 30.139 21.5169 30.0578L21.5389 30.021C21.5246 29.8009 21.4474 29.5904 21.3907 29.379C21.3564 29.2396 21.27 29.1241 21.1637 29.0353C21.1586 28.3162 21.1617 27.5976 21.1627 26.878C21.9443 27.2697 22.7136 27.6864 23.4885 28.0925C23.4911 28.5756 23.4931 29.0593 23.4921 29.5429C23.4839 30.5991 23.9378 31.6446 24.6949 32.3489C24.6939 32.6656 24.7 32.9822 24.6974 33.2989C23.9614 33.5961 23.2242 33.8903 22.4887 34.1885C22.4278 34.2131 22.3568 34.2396 22.2995 34.1906C21.4377 33.6799 20.5738 33.1707 19.7084 32.6661C18.4034 31.8872 17.0825 31.1339 15.8163 30.2876C15.4651 30.0761 15.2402 29.6737 15.2295 29.2529V29.1252C15.2361 28.8427 15.2377 28.5603 15.2377 28.2779C16.2984 27.331 17.3994 26.4341 18.526 25.5735C19.9006 24.5378 21.315 23.5434 22.8449 22.7696C24.1372 22.1506 25.4519 21.5822 26.7805 21.0531C28.5491 20.3646 30.3423 19.7287 32.1866 19.2936Z" fill="#C00B2E"/>
</svg>
