<svg width="107" height="45" viewBox="0 0 107 45" fill="none" xmlns="http://www.w3.org/2000/svg">
<rect width="107" height="45" rx="7" fill="#ECEBF6"/>
<path d="M24.398 20.521C24.8048 20.2593 25.3401 20.5508 25.3404 21.0344L25.3405 26.6793C25.3404 27.5532 24.89 28.3651 24.1493 28.8287L15.4829 34.2523C15.0758 34.5071 14.5473 34.2149 14.5471 33.7347L14.5475 28.2418C14.5476 27.3792 14.9857 26.5757 15.711 26.109L24.398 20.521Z" fill="#30CFA2" stroke="white" stroke-width="0.581456"/>
<ellipse cx="16.174" cy="14.2354" rx="3.68764" ry="3.68853" fill="#1A5358"/>
<path d="M26.6269 10.8197C27.0336 10.5559 27.5715 10.848 27.5715 11.3329L27.571 16.9805C27.5709 17.8391 27.1364 18.6397 26.4164 19.1074L15.5884 26.1397C15.1817 26.4039 14.6445 26.1123 14.6444 25.6273L14.6441 19.9803C14.6441 19.1216 15.0787 18.3211 15.7987 17.8534L26.6269 10.8197Z" fill="#30CFA2" stroke="white" stroke-width="0.581456"/>
<path d="M32.3008 20.5305V14.028H32.9368V20.5305H32.3008ZM32.657 17.6812V17.1419H36.01V17.6812H32.657ZM32.484 14.5623V14.028H36.0812V14.5623H32.484ZM36.4622 20.5305L38.5483 14.028H39.5862L41.6723 20.5305H41.0312L39.1334 14.4656H39.0011L37.1084 20.5305H36.4622ZM37.5765 18.4851V17.956H40.5529V18.4851H37.5765ZM44.6819 20.6425C43.9052 20.6425 43.3217 20.422 42.9317 19.981C42.545 19.5367 42.3516 18.9108 42.3516 18.1035V16.4448C42.3516 15.6375 42.5433 15.0151 42.9266 14.5775C43.3133 14.1366 43.8899 13.9161 44.6565 13.9161C44.9177 13.9161 45.1551 13.9432 45.3688 13.9975C45.5825 14.0484 45.7708 14.1145 45.9336 14.1959C46.0998 14.2774 46.2389 14.3605 46.3508 14.4453L46.4119 15.0456C46.2083 14.893 45.9692 14.7607 45.6945 14.6488C45.4197 14.5334 45.0975 14.4758 44.7277 14.4758C44.1579 14.4758 43.7254 14.6471 43.4303 14.9897C43.1386 15.3323 42.9927 15.8207 42.9927 16.455V18.0832C42.9927 18.7141 43.1403 19.2025 43.4354 19.5485C43.7339 19.8945 44.1782 20.0675 44.7684 20.0675C45.1348 20.0675 45.457 20.0115 45.7352 19.8996C46.0133 19.7877 46.2558 19.652 46.4627 19.4926L46.4068 20.1031C46.2948 20.1913 46.1541 20.2761 45.9845 20.3575C45.8149 20.4389 45.6215 20.5068 45.4044 20.561C45.1874 20.6153 44.9465 20.6425 44.6819 20.6425ZM49.9328 20.6425C49.156 20.6425 48.5794 20.4355 48.2028 20.0217C47.8297 19.6079 47.6432 19.0126 47.6432 18.2358V14.028H48.2792V18.2511C48.2792 18.8447 48.4115 19.3009 48.676 19.6198C48.9406 19.9386 49.3595 20.098 49.9328 20.098C50.5094 20.098 50.9283 19.9386 51.1895 19.6198C51.4541 19.3009 51.5864 18.8447 51.5864 18.2511V14.028H52.2224V18.2358C52.2224 19.0126 52.0341 19.6079 51.6576 20.0217C51.2845 20.4355 50.7095 20.6425 49.9328 20.6425ZM54.4516 20.5305H53.8156V14.028H54.4516V20.5305ZM54.1463 19.9861H57.596V20.5305H54.1463V19.9861ZM59.122 20.5305V19.9912H60.7451C61.3659 19.9912 61.8339 19.8216 62.1494 19.4824C62.4649 19.1432 62.6226 18.6564 62.6226 18.0221V16.5313C62.6226 15.8936 62.4649 15.4069 62.1494 15.0711C61.8339 14.7319 61.3659 14.5623 60.7451 14.5623H59.117V14.028H60.7655C61.5829 14.028 62.2037 14.2434 62.6277 14.6742C63.0517 15.105 63.2637 15.7223 63.2637 16.5263V18.0272C63.2637 18.8311 63.0517 19.4502 62.6277 19.8843C62.2037 20.3151 61.5829 20.5305 60.7655 20.5305H59.122ZM58.7048 20.5305V14.028H59.3306V20.5305H58.7048ZM63.9494 20.5305L66.0355 14.028H67.0734L69.1595 20.5305H68.5184L66.6206 14.4656H66.4883L64.5955 20.5305H63.9494ZM65.0636 18.4851V17.956H68.0401V18.4851H65.0636ZM70.6993 20.5305V19.9912H72.3223C72.9431 19.9912 73.4112 19.8216 73.7266 19.4824C74.0421 19.1432 74.1998 18.6564 74.1998 18.0221V16.5313C74.1998 15.8936 74.0421 15.4069 73.7266 15.0711C73.4112 14.7319 72.9431 14.5623 72.3223 14.5623H70.6942V14.028H72.3427C73.1602 14.028 73.7809 14.2434 74.2049 14.6742C74.6289 15.105 74.8409 15.7223 74.8409 16.5263V18.0272C74.8409 18.8311 74.6289 19.4502 74.2049 19.8843C73.7809 20.3151 73.1602 20.5305 72.3427 20.5305H70.6993ZM70.282 20.5305V14.028H70.9079V20.5305H70.282ZM76.2247 20.5305V14.028H76.8505V20.5305H76.2247ZM76.418 20.5305V19.9963H80.1424V20.5305H76.418ZM76.5808 17.4726V16.9435H80.0356V17.4726H76.5808ZM76.4078 14.5623V14.028H80.1119V14.5623H76.4078ZM84.2441 20.5305V19.9912H85.8672C86.4879 19.9912 86.956 19.8216 87.2715 19.4824C87.5869 19.1432 87.7447 18.6564 87.7447 18.0221V16.5313C87.7447 15.8936 87.5869 15.4069 87.2715 15.0711C86.956 14.7319 86.4879 14.5623 85.8672 14.5623H84.239V14.028H85.8875C86.705 14.028 87.3257 14.2434 87.7497 14.6742C88.1737 15.105 88.3857 15.7223 88.3857 16.5263V18.0272C88.3857 18.8311 88.1737 19.4502 87.7497 19.8843C87.3257 20.3151 86.705 20.5305 85.8875 20.5305H84.2441ZM83.8269 20.5305V14.028H84.4527V20.5305H83.8269ZM89.7695 20.5305V14.028H90.3953V20.5305H89.7695ZM89.9629 20.5305V19.9963H93.6873V20.5305H89.9629ZM90.1257 17.4726V16.9435H93.5804V17.4726H90.1257ZM89.9527 14.5623V14.028H93.6568V14.5623H89.9527ZM32.0709 29.5305V22.9828H33.6386V29.5305H32.0709ZM32.5371 29.5305V28.1933H36.6563V29.5305H32.5371ZM32.988 26.851V25.565H36.5334V26.851H32.988ZM32.532 24.3046V22.9828H36.6102V24.3046H32.532ZM39.8728 22.9777L41.6455 27.7834H41.7172L41.6455 25.0168V22.9777H43.1723V29.5305H41.0256L39.1863 24.6172H39.1197L39.1914 27.4453V29.5305H37.6646V22.9777H39.8728ZM44.3591 29.5305V22.9828H45.9525V29.5305H44.3591ZM45.2762 27.2506V25.9031H48.673V27.2506H45.2762ZM44.8202 24.3302V22.9828H48.7499V24.3302H44.8202ZM49.6926 29.5305V22.9828H51.2604V29.5305H49.6926ZM50.1589 29.5305V28.1933H54.2781V29.5305H50.1589ZM50.6097 26.851V25.565H54.1551V26.851H50.6097ZM50.1538 24.3046V22.9828H54.232V24.3046H50.1538ZM58.965 29.5305L58.8369 28.2958C58.8164 28.0772 58.7737 27.8996 58.7088 27.7629C58.6439 27.6229 58.5449 27.5204 58.4117 27.4555C58.2785 27.3872 58.1008 27.3531 57.8788 27.3531L56.3982 27.3479V26.1234L57.9403 26.1183C58.275 26.1183 58.5158 26.0449 58.6627 25.898C58.8096 25.7511 58.883 25.5308 58.883 25.2371V25.1346C58.883 24.8443 58.8096 24.6274 58.6627 24.4839C58.5193 24.3371 58.2767 24.2636 57.9352 24.2636H56.3879V22.9828H58.1657C58.9684 22.9828 59.5542 23.1382 59.9231 23.449C60.2954 23.7598 60.4815 24.2073 60.4815 24.7914V24.9246C60.4815 25.3652 60.3688 25.7084 60.1434 25.9544C59.9179 26.2003 59.5747 26.3403 59.1136 26.3745V26.5999L58.7857 26.3796C59.1819 26.4069 59.4893 26.4889 59.7079 26.6255C59.9265 26.7622 60.087 26.9534 60.1895 27.1994C60.2954 27.4419 60.3722 27.7442 60.42 28.1062L60.6096 29.5305H58.965ZM55.2864 29.5305V22.9828H56.8439V26.5641L56.8541 27.1584V29.5305H55.2864ZM61.4188 29.5305L61.6237 22.9828H63.8575L64.9386 26.8868H65.0052L66.0862 22.9828H68.32L68.525 29.5305H66.9726L66.9265 27.3838L66.8804 24.7709H66.8035L65.6815 28.762H64.2572L63.1351 24.7709H63.0532L63.0122 27.3889L62.9712 29.5305H61.4188ZM69.1695 29.5305L71.0447 22.9828H73.4527L75.3176 29.5305H73.6986L72.3101 24.0382H72.1923L70.7885 29.5305H69.1695ZM70.7629 27.9884V26.7434H73.714V27.9884H70.7629ZM77.8997 29.674C77.401 29.674 76.9826 29.5664 76.6445 29.3512C76.3097 29.136 76.0587 28.8252 75.8913 28.4187C75.724 28.0089 75.6403 27.517 75.6403 26.9432V25.7904C75.6403 24.8272 75.8999 24.0946 76.419 23.5925C76.9416 23.0904 77.7033 22.8393 78.7041 22.8393C79.0115 22.8393 79.2967 22.8615 79.5597 22.9059C79.8227 22.9469 80.0618 23.0016 80.277 23.0699C80.4956 23.1382 80.6851 23.2133 80.8457 23.2953L80.984 24.6479C80.7244 24.5318 80.4341 24.4293 80.113 24.3405C79.7954 24.2483 79.4299 24.2022 79.0166 24.2022C78.4155 24.2022 77.9749 24.3388 77.6948 24.612C77.4147 24.8819 77.2747 25.3054 77.2747 25.8826V26.9586C77.2747 27.3889 77.3754 27.722 77.5769 27.9576C77.7819 28.1933 78.0995 28.3111 78.5299 28.3111C78.7212 28.3111 78.8868 28.2838 79.0269 28.2292C79.1703 28.1711 79.2882 28.096 79.3804 28.0037C79.476 27.9115 79.5512 27.809 79.6058 27.6963V26.4462L79.8159 26.9176L78.5555 26.9227V25.688H81.1428V28.4392H79.5751C79.5238 28.6749 79.4367 28.8867 79.3138 29.0745C79.1942 29.259 79.02 29.4058 78.7912 29.5151C78.5658 29.621 78.2686 29.674 77.8997 29.674ZM79.6417 28.1831H81.1428V29.5305H79.5904L79.6417 28.1831ZM82.2744 29.5305V22.9828H83.8422V29.5305H82.2744ZM82.7406 29.5305V28.1933H86.8599V29.5305H82.7406ZM83.1915 26.851V25.565H86.7369V26.851H83.1915ZM82.7355 24.3046V22.9828H86.8137V24.3046H82.7355ZM87.7964 29.5305L88.0013 22.9828H90.2351L91.3162 26.8868H91.3828L92.4638 22.9828H94.6976L94.9026 29.5305H93.3502L93.3041 27.3838L93.258 24.7709H93.1811L92.0591 28.762H90.6348L89.5127 24.7709H89.4308L89.3898 27.3889L89.3488 29.5305H87.7964Z" fill="black"/>
</svg>
