<svg width="46" height="46" viewBox="0 0 46 46" fill="none" xmlns="http://www.w3.org/2000/svg">
<rect width="45.1273" height="45.1273" rx="22.5636" fill="url(#paint0_linear_974_147)"/>
<mask id="mask0_974_147" style="mask-type:alpha" maskUnits="userSpaceOnUse" x="12" y="12" width="21" height="21">
<rect x="12.5527" y="12.5522" width="20.0229" height="20.0229" fill="#D9D9D9"/>
</mask>
<g mask="url(#mask0_974_147)">
<path d="M21.6888 26.3597L26.4025 21.646L25.2137 20.4571L21.6888 23.982L19.916 22.2091L18.7271 23.398L21.6888 26.3597ZM19.6344 30.3121C18.7236 29.9158 17.9311 29.3805 17.2567 28.7061C16.5823 28.0317 16.047 27.2392 15.6507 26.3284C15.2544 25.4176 15.0563 24.4408 15.0563 23.398C15.0563 22.3551 15.2544 21.3783 15.6507 20.4675C16.047 19.5568 16.5823 18.7642 17.2567 18.0898C17.9311 17.4154 18.7236 16.8801 19.6344 16.4838C20.5452 16.0875 21.522 15.8894 22.5648 15.8894C23.6077 15.8894 24.5845 16.0875 25.4953 16.4838C26.406 16.8801 27.1986 17.4154 27.873 18.0898C28.5474 18.7642 29.0827 19.5568 29.479 20.4675C29.8753 21.3783 30.0734 22.3551 30.0734 23.398C30.0734 24.4408 29.8753 25.4176 29.479 26.3284C29.0827 27.2392 28.5474 28.0317 27.873 28.7061C27.1986 29.3805 26.406 29.9158 25.4953 30.3121C24.5845 30.7084 23.6077 30.9065 22.5648 30.9065C21.522 30.9065 20.5452 30.7084 19.6344 30.3121ZM17.2254 14.5128L18.3934 15.6808L14.8477 19.2265L13.6797 18.0585L17.2254 14.5128ZM27.9043 14.5128L31.45 18.0585L30.282 19.2265L26.7363 15.6808L27.9043 14.5128Z" fill="white"/>
</g>
<defs>
<linearGradient id="paint0_linear_974_147" x1="-6.01697" y1="-9.07197" x2="86.7287" y2="32.4841" gradientUnits="userSpaceOnUse">
<stop stop-color="#1B63DE"/>
<stop offset="1" stop-color="#0F3678"/>
</linearGradient>
</defs>
</svg>
