<svg width="46" height="46" viewBox="0 0 46 46" fill="none" xmlns="http://www.w3.org/2000/svg">
<rect width="45.1273" height="45.1273" rx="22.5636" fill="url(#paint0_linear_974_139)"/>
<mask id="mask0_974_139" style="mask-type:alpha" maskUnits="userSpaceOnUse" x="12" y="12" width="21" height="21">
<rect x="12.5527" y="12.5522" width="20.0229" height="20.0229" fill="#D9D9D9"/>
</mask>
<g mask="url(#mask0_974_139)">
<path d="M19.2278 29.238H25.9021V26.7351C25.9021 25.8174 25.5753 25.0318 24.9218 24.3783C24.2682 23.7247 23.4826 23.398 22.5649 23.398C21.6472 23.398 20.8616 23.7247 20.2081 24.3783C19.5545 25.0318 19.2278 25.8174 19.2278 26.7351V29.238ZM15.8906 30.9065V29.238H17.5592V26.7351C17.5592 25.8869 17.7573 25.0909 18.1536 24.347C18.5499 23.6031 19.1026 23.0086 19.8118 22.5637C19.1026 22.1187 18.5499 21.5243 18.1536 20.7804C17.7573 20.0365 17.5592 19.2404 17.5592 18.3923V15.8894H15.8906V14.2208H29.2392V15.8894H27.5706V18.3923C27.5706 19.2404 27.3725 20.0365 26.9762 20.7804C26.5799 21.5243 26.0272 22.1187 25.3181 22.5637C26.0272 23.0086 26.5799 23.6031 26.9762 24.347C27.3725 25.0909 27.5706 25.8869 27.5706 26.7351V29.238H29.2392V30.9065H15.8906Z" fill="white"/>
</g>
<defs>
<linearGradient id="paint0_linear_974_139" x1="-6.01697" y1="-9.07197" x2="86.7287" y2="32.4841" gradientUnits="userSpaceOnUse">
<stop stop-color="#1B63DE"/>
<stop offset="1" stop-color="#0F3678"/>
</linearGradient>
</defs>
</svg>
