<svg width="46" height="46" viewBox="0 0 46 46" fill="none" xmlns="http://www.w3.org/2000/svg">
<rect width="45.1273" height="45.1273" rx="22.5636" fill="url(#paint0_linear_974_131)"/>
<mask id="mask0_974_131" style="mask-type:alpha" maskUnits="userSpaceOnUse" x="12" y="12" width="21" height="21">
<rect x="12.127" y="12.1278" width="20.8717" height="20.8717" fill="#D9D9D9"/>
</mask>
<g mask="url(#mask0_974_131)">
<path d="M25.4113 22.9768L22.1501 19.6938L24.5634 17.3023L23.9329 16.6718L19.1716 21.4331L17.954 20.2156L22.6937 15.4543C23.0415 15.1064 23.451 14.9325 23.922 14.9325C24.3931 14.9325 24.8026 15.1064 25.1504 15.4543L25.7809 16.0848L26.868 14.9977C27.0419 14.8238 27.2485 14.7368 27.4876 14.7368C27.7268 14.7368 27.9333 14.8238 28.1072 14.9977L30.1292 17.0197C30.3031 17.1936 30.3901 17.4001 30.3901 17.6393C30.3901 17.8784 30.3031 18.085 30.1292 18.2589L25.4113 22.9768ZM17.9975 30.3906H14.7363V27.1294L20.9109 20.9331L24.1938 24.1943L17.9975 30.3906Z" fill="white"/>
</g>
<defs>
<linearGradient id="paint0_linear_974_131" x1="-6.01697" y1="-9.07197" x2="86.7287" y2="32.4841" gradientUnits="userSpaceOnUse">
<stop stop-color="#1B63DE"/>
<stop offset="1" stop-color="#0F3678"/>
</linearGradient>
</defs>
</svg>
